<svg width="24" height="24" viewBox="0 0 24 24" fill="none" xmlns="http://www.w3.org/2000/svg">
<path d="M12 19.5C10.668 20.122 8.917 20.5 7 20.5C5.934 20.5 4.92 20.383 4 20.173C2.418 19.81 2 18.88 2 17.386V6.614C2 5.629 3.04 4.953 4 5.173C4.92 5.383 5.934 5.5 7 5.5C8.917 5.5 10.668 5.122 12 4.5C13.332 3.878 15.083 3.5 17 3.5C18.066 3.5 19.08 3.617 20 3.827C21.582 4.19 22 5.12 22 6.614V17.386C22 18.371 20.96 19.047 20 18.827C19.08 18.617 18.066 18.5 17 18.5C15.083 18.5 13.332 18.878 12 19.5Z" stroke="#002360" strokeWidth="1.5" strokeLinecap="round" strokeLinejoin="round"/>
<path d="M5.5 13V13.009M18.5 10.992V11.002M14.5 12C14.5 12.663 14.2366 13.2989 13.7678 13.7678C13.2989 14.2366 12.663 14.5 12 14.5C11.337 14.5 10.7011 14.2366 10.2322 13.7678C9.76339 13.2989 9.5 12.663 9.5 12C9.5 11.337 9.76339 10.7011 10.2322 10.2322C10.7011 9.76339 11.337 9.5 12 9.5C12.663 9.5 13.2989 9.76339 13.7678 10.2322C14.2366 10.7011 14.5 11.337 14.5 12Z" stroke="#002360" strokeWidth="1.5" strokeLinecap="round" strokeLinejoin="round"/>
</svg>
