<svg width="24" height="25" viewBox="0 0 24 25" fill="none" xmlns="http://www.w3.org/2000/svg">
<g clip-path="url(#clip0_4189_13778)">
<path d="M14.9997 7.77536L8.4997 14.2754C8.10188 14.6732 7.87838 15.2127 7.87838 15.7754C7.87838 16.338 8.10188 16.8775 8.4997 17.2754C8.89753 17.6732 9.43709 17.8967 9.9997 17.8967C10.5623 17.8967 11.1019 17.6732 11.4997 17.2754L17.9997 10.7754C18.7954 9.97971 19.2423 8.90057 19.2423 7.77536C19.2423 6.65014 18.7954 5.57101 17.9997 4.77536C17.2041 3.97971 16.1249 3.53271 14.9997 3.53271C13.8745 3.53271 12.7954 3.97971 11.9997 4.77536L5.4997 11.2754C4.30623 12.4688 3.63574 14.0875 3.63574 15.7754C3.63574 17.4632 4.30623 19.0819 5.4997 20.2754C6.69318 21.4688 8.31188 22.1393 9.9997 22.1393C11.6875 22.1393 13.3062 21.4688 14.4997 20.2754L20.9997 13.7754" stroke="#0046BF" stroke-width="2" stroke-linecap="round" stroke-linejoin="round"/>
</g>
<defs>
<clipPath id="clip0_4189_13778">
<rect width="24" height="24" fill="white" transform="translate(0 0.775391)"/>
</clipPath>
</defs>
</svg>
