<svg width="17" height="13" viewBox="0 0 17 13" fill="none" xmlns="http://www.w3.org/2000/svg">
<path d="M9.87388 1.91255C9.70828 1.73483 9.61812 1.49978 9.62241 1.2569C9.62669 1.01402 9.72508 0.782291 9.89685 0.610525C10.0686 0.438759 10.3003 0.340369 10.5432 0.336084C10.7861 0.331798 11.0212 0.421952 11.1989 0.587552L16.1989 5.58755C16.3744 5.76333 16.4731 6.00161 16.4731 6.25005C16.4731 6.49849 16.3744 6.73677 16.1989 6.91255L11.1989 11.9126C11.1131 12.0047 11.0096 12.0785 10.8946 12.1298C10.7796 12.181 10.6554 12.2086 10.5295 12.2108C10.4037 12.213 10.2786 12.1899 10.1619 12.1427C10.0451 12.0956 9.9391 12.0254 9.85008 11.9363C9.76106 11.8473 9.69088 11.7413 9.64372 11.6245C9.59657 11.5078 9.57342 11.3828 9.57564 11.2569C9.57786 11.131 9.60541 11.0069 9.65665 10.8919C9.70789 10.7769 9.78177 10.6734 9.87388 10.5876L13.2739 7.18755H1.16138C0.912737 7.18755 0.67428 7.08878 0.498464 6.91296C0.322649 6.73715 0.223877 6.49869 0.223877 6.25005C0.223877 6.00141 0.322649 5.76296 0.498464 5.58714C0.67428 5.41132 0.912737 5.31255 1.16138 5.31255H13.2739L9.87388 1.91255Z" fill="#1976D2"/>
</svg>
