<svg width="24" height="25" viewBox="0 0 24 25" fill="none" xmlns="http://www.w3.org/2000/svg">
<g clip-path="url(#clip0_4189_2746)">
<path d="M7 5.77515H13C13.9283 5.77515 14.8185 6.1439 15.4749 6.80027C16.1313 7.45665 16.5 8.34689 16.5 9.27515C16.5 10.2034 16.1313 11.0936 15.4749 11.75C14.8185 12.4064 13.9283 12.7751 13 12.7751H7V5.77515Z" stroke="#7C8493" stroke-width="2" stroke-linecap="round" stroke-linejoin="round"/>
<path d="M13 12.7751H14C14.9283 12.7751 15.8185 13.1439 16.4749 13.8003C17.1313 14.4567 17.5 15.3469 17.5 16.2751C17.5 17.2034 17.1313 18.0936 16.4749 18.75C15.8185 19.4064 14.9283 19.7751 14 19.7751H7V12.7751" stroke="#7C8493" stroke-width="2" stroke-linecap="round" stroke-linejoin="round"/>
</g>
<defs>
<clipPath id="clip0_4189_2746">
<rect width="24" height="24" fill="white" transform="translate(0 0.775146)"/>
</clipPath>
</defs>
</svg>
