<svg width="21" height="20" viewBox="0 0 21 20" fill="none" xmlns="http://www.w3.org/2000/svg">
<g clip-path="url(#clip0_3342_5638)">
<path fillRule="evenodd" clip-rule="evenodd" d="M3.26861 5.73223C3.73745 5.26339 4.37334 5 5.03638 5H7.53638C7.99661 5 8.36971 5.3731 8.36971 5.83333C8.36971 6.29357 7.99661 6.66667 7.53638 6.66667H5.03638C4.81536 6.66667 4.6034 6.75446 4.44712 6.91074C4.29084 7.06702 4.20304 7.27899 4.20304 7.5V15C4.20304 15.221 4.29084 15.433 4.44712 15.5893C4.6034 15.7455 4.81536 15.8333 5.03638 15.8333H12.5364C12.7574 15.8333 12.9694 15.7455 13.1256 15.5893C13.2819 15.433 13.3697 15.221 13.3697 15V12.5C13.3697 12.0398 13.7428 11.6667 14.203 11.6667C14.6633 11.6667 15.0364 12.0398 15.0364 12.5V15C15.0364 15.663 14.773 16.2989 14.3041 16.7678C13.8353 17.2366 13.1994 17.5 12.5364 17.5H5.03638C4.37334 17.5 3.73745 17.2366 3.26861 16.7678C2.79977 16.2989 2.53638 15.663 2.53638 15V7.5C2.53638 6.83696 2.79977 6.20107 3.26861 5.73223Z" fill="#0046BF"/>
<path fillRule="evenodd" clip-rule="evenodd" d="M14.0305 2.32825C14.5183 1.84045 15.1799 1.56641 15.8698 1.56641C16.5596 1.56641 17.2212 1.84045 17.709 2.32825C18.1968 2.81605 18.4709 3.47765 18.4709 4.16751C18.4709 4.85736 18.1968 5.51896 17.709 6.00676L10.6257 13.0901C10.4694 13.2464 10.2575 13.3342 10.0365 13.3342H7.53646C7.07622 13.3342 6.70312 12.9611 6.70312 12.5008V10.0008C6.70312 9.77983 6.79092 9.56787 6.9472 9.41158L14.0305 2.32825ZM15.8698 3.23307C15.622 3.23307 15.3843 3.33152 15.209 3.50676L8.36979 10.346V11.6675H9.69128L16.5305 4.82825C16.7058 4.65301 16.8042 4.41533 16.8042 4.16751C16.8042 3.91968 16.7058 3.682 16.5305 3.50676C16.3553 3.33152 16.1176 3.23307 15.8698 3.23307Z" fill="#0046BF"/>
<path fillRule="evenodd" clip-rule="evenodd" d="M12.7805 3.57611C13.1059 3.25067 13.6335 3.25067 13.959 3.57611L16.459 6.07611C16.7844 6.40155 16.7844 6.92918 16.459 7.25462C16.1335 7.58006 15.6059 7.58006 15.2805 7.25462L12.7805 4.75462C12.455 4.42918 12.455 3.90155 12.7805 3.57611Z" fill="#0046BF"/>
</g>
<defs>
<clipPath id="clip0_3342_5638">
<rect width="20" height="20" fill="white" transform="translate(0.036377)"/>
</clipPath>
</defs>
</svg>
