<svg width="24" height="25" viewBox="0 0 24 25" fill="none" xmlns="http://www.w3.org/2000/svg">
<g opacity="0.5" clip-path="url(#clip0_2746_1308)">
<path d="M16 4.80347H8C5.79086 4.80347 4 6.59433 4 8.80347V16.8035C4 19.0126 5.79086 20.8035 8 20.8035H16C18.2091 20.8035 20 19.0126 20 16.8035V8.80347C20 6.59433 18.2091 4.80347 16 4.80347Z" stroke="#515B6F" stroke-width="2" stroke-linecap="round" stroke-linejoin="round"/>
<path d="M12 15.8035C13.6569 15.8035 15 14.4603 15 12.8035C15 11.1466 13.6569 9.80347 12 9.80347C10.3431 9.80347 9 11.1466 9 12.8035C9 14.4603 10.3431 15.8035 12 15.8035Z" stroke="#515B6F" stroke-width="2" stroke-linecap="round" stroke-linejoin="round"/>
<path d="M16.5 8.30347V8.30447" stroke="#515B6F" stroke-width="2" stroke-linecap="round" stroke-linejoin="round"/>
</g>
<defs>
<clipPath id="clip0_2746_1308">
<rect width="24" height="24" fill="white" transform="translate(0 0.803467)"/>
</clipPath>
</defs>
</svg>
