<svg width="25" height="24" viewBox="0 0 25 24" fill="none" xmlns="http://www.w3.org/2000/svg">
<g clip-path="url(#clip0_3540_5943)">
<path d="M22.0364 4.00904C21.0364 4.49904 20.0564 4.69804 19.0364 4.99904C17.9154 3.73404 16.2534 3.66404 14.6564 4.26204C13.0594 4.86004 12.0134 6.32204 12.0364 7.99904V8.99904C8.79138 9.08204 5.90138 7.60404 4.03638 4.99904C4.03638 4.99904 -0.145623 12.432 8.03638 15.999C6.16438 17.246 4.29738 18.087 2.03638 17.999C5.34438 19.802 8.94938 20.422 12.0704 19.516C15.6504 18.476 18.5924 15.793 19.7214 11.774C20.0582 10.5517 20.2254 9.2889 20.2184 8.02104C20.2164 7.77204 21.7284 5.24904 22.0364 4.00804V4.00904Z" stroke="#515B6F" strokeWidth="2" strokeLinecap="round" strokeLinejoin="round"/>
</g>
<defs>
<clipPath id="clip0_3540_5943">
<rect width="24" height="24" fill="white" transform="translate(0.036377)"/>
</clipPath>
</defs>
</svg>
