<svg width="25" height="24" viewBox="0 0 25 24" fill="none" xmlns="http://www.w3.org/2000/svg">
<g clip-path="url(#clip0_3342_6061)">
<path d="M12.0364 21C17.0069 21 21.0364 16.9706 21.0364 12C21.0364 7.02944 17.0069 3 12.0364 3C7.06581 3 3.03638 7.02944 3.03638 12C3.03638 16.9706 7.06581 21 12.0364 21Z" stroke="#515B6F" stroke-width="2" stroke-linecap="round" stroke-linejoin="round"/>
<path d="M3.63647 9H20.4365" stroke="#515B6F" stroke-width="2" stroke-linecap="round" stroke-linejoin="round"/>
<path d="M3.63647 15H20.4365" stroke="#515B6F" stroke-width="2" stroke-linecap="round" stroke-linejoin="round"/>
<path d="M11.5363 3C9.85163 5.69961 8.9585 8.81787 8.9585 12C8.9585 15.1821 9.85163 18.3004 11.5363 21" stroke="#515B6F" stroke-width="2" stroke-linecap="round" stroke-linejoin="round"/>
<path d="M12.5364 3C14.221 5.69961 15.1142 8.81787 15.1142 12C15.1142 15.1821 14.221 18.3004 12.5364 21" stroke="#515B6F" stroke-width="2" stroke-linecap="round" stroke-linejoin="round"/>
</g>
<defs>
<clipPath id="clip0_3342_6061">
<rect width="24" height="24" fill="white" transform="translate(0.036377)"/>
</clipPath>
</defs>
</svg>
