<svg width="20" height="22" viewBox="0 0 20 22" fill="none" xmlns="http://www.w3.org/2000/svg">
<path d="M12.6276 1.37695V5.22981C12.6276 5.7516 12.8354 6.25302 13.2061 6.62267C13.5778 6.99271 14.081 7.20037 14.6054 7.20017H19.0251" stroke="#1976D2" strokeWidth="1.07143" strokeLinecap="round" strokeLinejoin="round"/>
<path d="M5.62146 6.62086H9.11968M5.62146 11.2848H14.9493M5.62146 15.9487H14.9493M19.1247 7.60765V16.7877C19.1033 17.3881 18.9634 17.9784 18.713 18.5245C18.4625 19.0707 18.1065 19.5618 17.6654 19.9698C16.7735 20.7971 15.5896 21.2364 14.374 21.1912H6.24182C5.63615 21.2193 5.03091 21.1273 4.4609 20.9206C3.89089 20.7139 3.36735 20.3966 2.92039 19.9869C2.4752 19.5777 2.11565 19.0842 1.86258 18.5351C1.60951 17.9859 1.46795 17.3919 1.44611 16.7877V5.77979C1.46738 5.17934 1.60727 4.58903 1.85773 4.04288C2.10818 3.49674 2.46424 3.00556 2.90539 2.59765C3.79727 1.77033 4.98115 1.331 6.19682 1.37622H12.319C13.2535 1.37323 14.1555 1.71899 14.8486 2.34587L18.02 5.26229C18.3584 5.55385 18.6316 5.91335 18.8219 6.31742C19.0122 6.7215 19.1154 7.1611 19.1247 7.60765Z" stroke="#1976D2" strokeWidth="1.07143" strokeLinecap="round" strokeLinejoin="round"/>
</svg>
