<svg width="70" height="70" viewBox="0 0 70 70" fill="none" xmlns="http://www.w3.org/2000/svg">
<rect width="70" height="70" rx="6" fill="#002360"/>
<path d="M45.6066 24.3934C43.1527 21.9395 39.9239 20.4124 36.4703 20.0722C33.0166 19.7321 29.5519 20.5999 26.6664 22.528C23.781 24.456 21.6533 27.3248 20.6459 30.6457C19.6385 33.9666 19.8138 37.5341 21.1418 40.7403C22.4698 43.9464 24.8685 46.5929 27.929 48.2288C30.9896 49.8647 34.5227 50.3888 37.9264 49.7118C41.33 49.0348 44.3936 47.1985 46.5952 44.5159C48.7967 41.8333 50 38.4703 50 35H41.533C41.533 36.5114 41.0089 37.9761 40.0501 39.1445C39.0912 40.3129 37.7569 41.1126 36.2745 41.4075C34.7921 41.7023 33.2533 41.4741 31.9204 40.7616C30.5874 40.0491 29.5427 38.8965 28.9643 37.5001C28.3859 36.1037 28.3096 34.5499 28.7483 33.1036C29.1871 31.6572 30.1137 30.4077 31.3705 29.568C32.6272 28.7283 34.1362 28.3503 35.6403 28.4985C37.1445 28.6466 38.5508 29.3117 39.6195 30.3805L45.6066 24.3934Z" fill="#FC2525"/>
</svg>
