<svg width="70" height="70" viewBox="0 0 70 70" fill="none" xmlns="http://www.w3.org/2000/svg">
<rect width="70" height="70" rx="6" fill="url(#paint0_linear_242_104)"/>
<path d="M48.595 30.0995C46.1411 27.6456 34.4178 22.322 30.9642 21.9818C27.5106 21.6417 33.3703 19.9538 28.6663 21.9818C25.7809 23.9098 23.6532 26.7786 22.6458 30.0995C21.6384 33.4204 21.8137 36.9879 23.1417 40.194C24.4697 43.4002 26.8684 46.0467 29.9289 47.6826C32.9895 49.3185 36.5226 49.8426 39.9262 49.1656C43.3299 48.4885 46.3935 32.7821 48.595 30.0995C50.7966 27.4169 42.05 33.5698 42.05 30.0995L43.5329 34.4538C43.5329 35.9652 43.0088 37.4299 42.05 38.5983C41.0911 39.7667 39.7568 40.5664 38.2744 40.8613C36.792 41.1561 35.2532 40.9279 33.9202 40.2154C32.5873 39.5029 31.5426 38.3503 30.9642 36.9539C30.3858 35.5575 30.3094 34.0037 30.7482 32.5574C31.1869 31.111 32.1136 29.8615 33.3703 29.0218C34.6271 28.1821 36.1361 27.8041 37.6402 27.9523C39.1444 28.1004 40.5507 28.7655 41.6194 29.8343L48.595 30.0995Z" fill="#25FCEF"/>
<defs>
<linearGradient id="paint0_linear_242_104" x1="8" y1="6" x2="63" y2="66" gradientUnits="userSpaceOnUse">
<stop stop-color="#002360"/>
<stop offset="1" stop-color="#0048C6"/>
</linearGradient>
</defs>
</svg>
