<svg width="21" height="21" viewBox="0 0 21 21" fill="none" xmlns="http://www.w3.org/2000/svg">
<path d="M7.76025 2.10216H12.8113C12.9939 2.10216 13.1691 2.17473 13.2983 2.3039C13.4275 2.43307 13.5 2.60826 13.5 2.79094V4.85726H7.07147V2.79094C7.07147 2.60826 7.14404 2.43307 7.27321 2.3039C7.40238 2.17473 7.57757 2.10216 7.76025 2.10216ZM5.69392 2.79094V4.85726H3.63127C2.71789 4.85726 1.84193 5.2201 1.19608 5.86595C0.550226 6.5118 0.187389 7.38777 0.187389 8.30114V9.14879C0.184963 9.17229 0.183737 9.19589 0.183716 9.21951V10.1379C0.183716 10.1911 0.184634 10.2444 0.187389 10.2968V17.0256C0.187389 17.939 0.550226 18.815 1.19608 19.4608C1.84193 20.1067 2.71789 20.4695 3.63127 20.4695H16.9439C17.8573 20.4695 18.7333 20.1067 19.3791 19.4608C20.025 18.815 20.3878 17.939 20.3878 17.0256V8.30114C20.3878 7.38777 20.025 6.5118 19.3791 5.86595C18.7333 5.2201 17.8573 4.85726 16.9439 4.85726H14.8776V2.79094C14.8776 2.51958 14.8241 2.25089 14.7203 2.00019C14.6165 1.74949 14.4643 1.5217 14.2724 1.32982C14.0805 1.13795 13.8527 0.985742 13.602 0.881899C13.3513 0.778057 13.0826 0.724609 12.8113 0.724609H7.76025C7.21222 0.724609 6.68664 0.942311 6.29913 1.32982C5.91162 1.71733 5.69392 2.24291 5.69392 2.79094ZM1.56494 12.8957C2.15987 13.3421 2.88383 13.5829 3.62759 13.5818H7.98984V14.0409C7.98984 14.4063 8.13497 14.7567 8.39331 15.015C8.65166 15.2734 9.00204 15.4185 9.36739 15.4185H11.2041C11.5695 15.4185 11.9199 15.2734 12.1782 15.015C12.4365 14.7567 12.5817 14.4063 12.5817 14.0409V13.5818H16.9439C17.719 13.5818 18.4353 13.3246 19.0102 12.893V17.0256C19.0102 17.5737 18.7925 18.0992 18.405 18.4867C18.0175 18.8743 17.4919 19.092 16.9439 19.092H3.63127C3.08324 19.092 2.55766 18.8743 2.17015 18.4867C1.78264 18.0992 1.56494 17.5737 1.56494 17.0256V12.8957ZM12.5817 12.2042C12.5817 11.8389 12.4365 11.4885 12.1782 11.2301C11.9199 10.9718 11.5695 10.8266 11.2041 10.8266H9.36739C9.00204 10.8266 8.65166 10.9718 8.39331 11.2301C8.13497 11.4885 7.98984 11.8389 7.98984 12.2042H3.62759C3.10087 12.2042 2.59404 12.0031 2.21066 11.6419C1.82728 11.2807 1.59631 10.7867 1.56494 10.2609V8.30114C1.56494 7.75312 1.78264 7.22754 2.17015 6.84003C2.55766 6.45252 3.08324 6.23481 3.63127 6.23481H16.9439C17.4919 6.23481 18.0175 6.45252 18.405 6.84003C18.7925 7.22754 19.0102 7.75312 19.0102 8.30114V10.1379C19.0102 10.6859 18.7925 11.2115 18.405 11.599C18.0175 11.9865 17.4919 12.2042 16.9439 12.2042H12.5817Z" fill="#1976D2"/>
</svg>
