<svg width="70" height="70" viewBox="0 0 70 70" fill="none" xmlns="http://www.w3.org/2000/svg">
<rect width="70" height="70" rx="6" fill="#FFC107"/>
<path d="M45.6066 24.3934C43.1527 21.9395 39.9239 20.4124 36.4703 20.0722C33.0166 19.7321 29.5519 20.5999 26.6664 22.528C23.781 24.456 21.6533 27.3248 20.6459 30.6457C19.6385 33.9666 19.8138 37.5341 21.1418 40.7403C22.4698 43.9464 24.8685 46.5929 27.929 48.2288C30.9896 49.8647 34.5227 50.3888 37.9264 49.7118C41.33 49.0348 44.3936 47.1985 46.5952 44.5159C48.7967 41.8333 50 38.4703 50 35H44.5106C44.5106 37.2003 43.7477 39.3326 42.3518 41.0335C40.9559 42.7344 39.0135 43.8986 36.8554 44.3279C34.6974 44.7572 32.4572 44.4249 30.5167 43.3876C28.5762 42.3504 27.0553 40.6724 26.2133 38.6396C25.3713 36.6067 25.2602 34.3448 25.8989 32.2392C26.5376 30.1336 27.8867 28.3146 29.7162 27.0922C31.5457 25.8697 33.7425 25.3195 35.9322 25.5352C38.1219 25.7508 40.1692 26.7191 41.725 28.275L45.6066 24.3934Z" fill="#0046BF"/>
</svg>
