<svg width="80" height="80" viewBox="0 0 80 80" fill="none" xmlns="http://www.w3.org/2000/svg">
<rect width="80" height="80" rx="8" fill="#ED49C9"/>
<path d="M17.5508 23.8936H31.2471L54.9531 48.4541V33.7568C54.9531 31.9665 54.6439 30.404 54.0254 29.0693C53.4232 27.7184 52.5443 26.693 51.3887 25.9932C50.7702 25.6025 50.1436 25.3258 49.5088 25.1631C48.8903 25.0003 48.0195 24.8783 46.8965 24.7969V23.8936H63.791V24.7969H63.4492C60.9915 24.7969 59.1198 25.5781 57.834 27.1406C56.5482 28.7031 55.9053 30.9736 55.9053 33.9521V58.3418H55.0996L25.6562 28.0928V48.3564C25.6562 50.3258 25.8923 51.9046 26.3643 53.0928C26.8363 54.2646 27.6012 55.1842 28.6592 55.8516C29.5218 56.3724 30.5716 56.7061 31.8086 56.8525C32.4922 56.9665 33.4688 57.0479 34.7383 57.0967V58H16.9404V57.0967C18.7633 56.999 20.2445 56.6816 21.3838 56.1445C22.5394 55.5911 23.3857 54.7773 23.9229 53.7031C24.4762 52.6289 24.7529 51.2943 24.7529 49.6992V30.4121C24.7529 29.224 24.4844 28.2148 23.9473 27.3848C23.4264 26.5547 22.6615 25.9199 21.6523 25.4805C20.6432 25.0247 19.4225 24.7969 17.9902 24.7969H17.5508V23.8936Z" fill="white"/>
</svg>
