<svg width="32" height="33" viewBox="0 0 32 33" fill="none" xmlns="http://www.w3.org/2000/svg">
<rect y="0.179688" width="32" height="32" rx="16" fill="#1976D2"/>
<path d="M9.28524 24.3797H12.1352V13.8347H9.28524V24.3797ZM10.7102 9.17969C9.76024 9.17969 9.00024 9.93969 9.00024 10.8897C9.00024 11.8397 9.76024 12.5997 10.7102 12.5997C11.6602 12.5997 12.4202 11.8397 12.4202 10.8897C12.4202 9.93969 11.6602 9.17969 10.7102 9.17969ZM16.9802 15.4497V13.8347H14.1302V24.3797H16.9802V18.9647C16.9802 15.9247 20.8752 15.7347 20.8752 18.9647V24.3797H23.7252V17.9197C23.7252 12.7897 18.3102 12.9797 16.9802 15.4497Z" fill="white"/>
<path d="M9.28524 24.3797H12.1352V13.8347H9.28524V24.3797ZM10.7102 9.17969C9.76024 9.17969 9.00024 9.93969 9.00024 10.8897C9.00024 11.8397 9.76024 12.5997 10.7102 12.5997C11.6602 12.5997 12.4202 11.8397 12.4202 10.8897C12.4202 9.93969 11.6602 9.17969 10.7102 9.17969ZM16.9802 15.4497V13.8347H14.1302V24.3797H16.9802V18.9647C16.9802 15.9247 20.8752 15.7347 20.8752 18.9647V24.3797H23.7252V17.9197C23.7252 12.7897 18.3102 12.9797 16.9802 15.4497Z" fill="white"/>
</svg>
