<svg width="24" height="25" viewBox="0 0 24 25" fill="none" xmlns="http://www.w3.org/2000/svg">
<g clip-path="url(#clip0_4189_2770)">
<path d="M10 14.775C10.3259 15.1076 10.7148 15.3719 11.1441 15.5522C11.5734 15.7326 12.0344 15.8255 12.5 15.8255C12.9656 15.8255 13.4266 15.7326 13.8559 15.5522C14.2852 15.3719 14.6741 15.1076 15 14.775L19 10.775C19.663 10.112 20.0355 9.21272 20.0355 8.27504C20.0355 7.33735 19.663 6.43808 19 5.77504C18.337 5.11199 17.4377 4.7395 16.5 4.7395C15.5623 4.7395 14.663 5.11199 14 5.77504L13.5 6.27504" stroke="#7C8493" stroke-width="2" stroke-linecap="round" stroke-linejoin="round"/>
<path d="M14.0004 10.7751C13.6745 10.4425 13.2855 10.1783 12.8563 9.99791C12.427 9.81752 11.966 9.72461 11.5004 9.72461C11.0347 9.72461 10.5738 9.81752 10.1445 9.99791C9.71523 10.1783 9.32626 10.4425 9.00038 10.7751L5.00038 14.7751C4.33734 15.4382 3.96484 16.3374 3.96484 17.2751C3.96484 18.2128 4.33734 19.1121 5.00038 19.7751C5.66342 20.4382 6.5627 20.8107 7.50038 20.8107C8.43806 20.8107 9.33734 20.4382 10.0004 19.7751L10.5004 19.2751" stroke="#7C8493" stroke-width="2" stroke-linecap="round" stroke-linejoin="round"/>
</g>
<defs>
<clipPath id="clip0_4189_2770">
<rect width="24" height="24" fill="white" transform="translate(0 0.775146)"/>
</clipPath>
</defs>
</svg>
