<svg width="26" height="16" viewBox="0 0 26 16" fill="none" xmlns="http://www.w3.org/2000/svg">
<path d="M14.2234 13H1.74386C1.41288 13 1.09546 13.1317 0.861427 13.3661C0.627391 13.6005 0.495911 13.9185 0.495911 14.25C0.495911 14.5815 0.627391 14.8995 0.861427 15.1339C1.09546 15.3683 1.41288 15.5 1.74386 15.5H14.2234C14.5543 15.5 14.8718 15.3683 15.1058 15.1339C15.3398 14.8995 15.4713 14.5815 15.4713 14.25C15.4713 13.9185 15.3398 13.6005 15.1058 13.3661C14.8718 13.1317 14.5543 13 14.2234 13ZM1.74386 3H24.207C24.538 3 24.8554 2.8683 25.0894 2.63388C25.3235 2.39946 25.4549 2.08152 25.4549 1.75C25.4549 1.41848 25.3235 1.10054 25.0894 0.866117C24.8554 0.631696 24.538 0.5 24.207 0.5H1.74386C1.41288 0.5 1.09546 0.631696 0.861427 0.866117C0.627391 1.10054 0.495911 1.41848 0.495911 1.75C0.495911 2.08152 0.627391 2.39946 0.861427 2.63388C1.09546 2.8683 1.41288 3 1.74386 3ZM24.207 6.75H1.74386C1.41288 6.75 1.09546 6.8817 0.861427 7.11612C0.627391 7.35054 0.495911 7.66848 0.495911 8C0.495911 8.33152 0.627391 8.64946 0.861427 8.88388C1.09546 9.1183 1.41288 9.25 1.74386 9.25H24.207C24.538 9.25 24.8554 9.1183 25.0894 8.88388C25.3235 8.64946 25.4549 8.33152 25.4549 8C25.4549 7.66848 25.3235 7.35054 25.0894 7.11612C24.8554 6.8817 24.538 6.75 24.207 6.75Z" fill="black"/>
</svg>
