<svg width="50" height="50" viewBox="0 0 50 50" fill="none" xmlns="http://www.w3.org/2000/svg">
<rect x="1" y="1" width="48" height="48" rx="24" fill="#FCFBF7"/>
<rect x="1" y="1" width="48" height="48" rx="24" stroke="#1976D2" stroke-width="2"/>
<path fill-rule="evenodd" clip-rule="evenodd" d="M26.25 13.75C26.25 13.4185 26.1183 13.1005 25.8839 12.8661C25.6495 12.6317 25.3315 12.5 25 12.5C24.6685 12.5 24.3505 12.6317 24.1161 12.8661C23.8817 13.1005 23.75 13.4185 23.75 13.75V14.6875H23.0538C21.7138 14.6874 20.4242 15.198 19.4474 16.1153C18.4707 17.0326 17.8802 18.2877 17.7963 19.625L17.52 24.0425C17.4147 25.7268 16.8491 27.3499 15.885 28.735C15.6858 29.0213 15.5641 29.3543 15.5317 29.7016C15.4993 30.0489 15.5573 30.3987 15.7001 30.717C15.843 31.0352 16.0657 31.311 16.3467 31.5177C16.6277 31.7243 16.9574 31.8548 17.3038 31.8962L21.5625 32.4062V33.75C21.5625 34.6617 21.9247 35.536 22.5693 36.1807C23.214 36.8253 24.0883 37.1875 25 37.1875C25.9117 37.1875 26.786 36.8253 27.4307 36.1807C28.0753 35.536 28.4375 34.6617 28.4375 33.75V32.4062L32.6963 31.895C33.0424 31.8534 33.3719 31.723 33.6527 31.5164C33.9335 31.3098 34.1562 31.0341 34.2989 30.7161C34.4417 30.398 34.4998 30.0485 34.4676 29.7013C34.4354 29.3542 34.3139 29.0213 34.115 28.735C33.1508 27.3499 32.5853 25.7268 32.48 24.0425L32.2038 19.6263C32.1201 18.2887 31.5298 17.0333 30.553 16.1158C29.5762 15.1982 28.2864 14.6874 26.9463 14.6875H26.25V13.75ZM23.0538 16.5625C22.1907 16.5624 21.3601 16.8912 20.731 17.482C20.1019 18.0728 19.7216 18.8812 19.6675 19.7425L19.3925 24.16C19.2654 26.1862 18.5849 28.1388 17.425 29.805C17.4106 29.8257 17.4018 29.8498 17.3994 29.8749C17.3971 29.9 17.4013 29.9253 17.4116 29.9484C17.4219 29.9714 17.438 29.9913 17.4583 30.0063C17.4786 30.0213 17.5025 30.0307 17.5275 30.0338L22.1988 30.595C24.06 30.8175 25.94 30.8175 27.8013 30.595L32.4725 30.0338C32.4976 30.0307 32.5214 30.0213 32.5417 30.0063C32.562 29.9913 32.5781 29.9714 32.5884 29.9484C32.5988 29.9253 32.6029 29.9 32.6006 29.8749C32.5982 29.8498 32.5894 29.8257 32.575 29.805C31.4156 28.1386 30.7355 26.1861 30.6088 24.16L30.3325 19.7425C30.2784 18.8812 29.8981 18.0728 29.269 17.482C28.6399 16.8912 27.8093 16.5624 26.9463 16.5625H23.0538ZM25 35.3125C24.1375 35.3125 23.4375 34.6125 23.4375 33.75V32.8125H26.5625V33.75C26.5625 34.6125 25.8625 35.3125 25 35.3125Z" fill="#1976D2"/>
<rect x="28" y="14" width="8" height="8" rx="4" fill="#E11010"/>
</svg>
