<svg width="25" height="24" viewBox="0 0 25 24" fill="none" xmlns="http://www.w3.org/2000/svg">
<g clip-path="url(#clip0_3342_5626)">
<path fill-rule="evenodd" clip-rule="evenodd" d="M12.0364 4C12.5887 4 13.0364 4.44772 13.0364 5V19C13.0364 19.5523 12.5887 20 12.0364 20C11.4841 20 11.0364 19.5523 11.0364 19V5C11.0364 4.44772 11.4841 4 12.0364 4Z" fill="#0046BF"/>
<path fill-rule="evenodd" clip-rule="evenodd" d="M4.03638 12C4.03638 11.4477 4.48409 11 5.03638 11H19.0364C19.5887 11 20.0364 11.4477 20.0364 12C20.0364 12.5523 19.5887 13 19.0364 13H5.03638C4.48409 13 4.03638 12.5523 4.03638 12Z" fill="#0046BF"/>
</g>
<defs>
<clipPath id="clip0_3342_5626">
<rect width="24" height="24" fill="white" transform="translate(0.036377)"/>
</clipPath>
</defs>
</svg>
