<svg width="64" height="64" viewBox="0 0 64 64" fill="none" xmlns="http://www.w3.org/2000/svg">
<g clipPath="url(#clip0_871_589)">
<rect width="64" height="64" rx="32" fill="url(#paint0_linear_871_589)"/>
<path d="M10.072 26.8H13.176V34.064C13.176 34.576 13.3093 34.992 13.576 35.312C13.8427 35.6213 14.2427 35.776 14.776 35.776C15.32 35.776 15.7253 35.6213 15.992 35.312C16.2587 34.992 16.392 34.576 16.392 34.064V26.8H19.496V34.32C19.496 35.0773 19.3733 35.7227 19.128 36.256C18.8827 36.7893 18.5413 37.2267 18.104 37.568C17.6667 37.8987 17.1653 38.144 16.6 38.304C16.0347 38.464 15.4267 38.544 14.776 38.544C14.136 38.544 13.528 38.464 12.952 38.304C12.3867 38.144 11.8853 37.8987 11.448 37.568C11.0213 37.2267 10.6853 36.7893 10.44 36.256C10.1947 35.7227 10.072 35.0773 10.072 34.32V26.8ZM24.1465 30.64V38H21.4425V30.64H24.1465ZM26.2425 33.472C26.1252 33.344 25.9918 33.2427 25.8425 33.168C25.7038 33.0827 25.5278 33.04 25.3145 33.04C25.1012 33.04 24.9038 33.0987 24.7225 33.216C24.5412 33.3333 24.3972 33.5093 24.2905 33.744C24.1945 33.9787 24.1465 34.272 24.1465 34.624L23.5705 33.52C23.5705 32.9333 23.6878 32.4107 23.9225 31.952C24.1572 31.4933 24.4665 31.1307 24.8505 30.864C25.2452 30.5867 25.6558 30.448 26.0825 30.448C26.3492 30.448 26.6052 30.512 26.8505 30.64C27.0958 30.7573 27.2772 30.9067 27.3945 31.088L26.2425 33.472ZM31.1008 25.52V38H28.3328V25.52H31.1008ZM37.0688 34.32C37.0688 35.152 36.8981 35.856 36.5568 36.432C36.2261 36.9973 35.7994 37.4293 35.2768 37.728C34.7541 38.016 34.1994 38.16 33.6128 38.16C33.0048 38.16 32.4554 38.0053 31.9648 37.696C31.4848 37.3867 31.1008 36.944 30.8128 36.368C30.5354 35.792 30.3968 35.1093 30.3968 34.32C30.3968 33.52 30.5354 32.8373 30.8128 32.272C31.1008 31.696 31.4848 31.2533 31.9648 30.944C32.4554 30.6347 33.0048 30.48 33.6128 30.48C34.1994 30.48 34.7541 30.6293 35.2768 30.928C35.7994 31.216 36.2261 31.6427 36.5568 32.208C36.8981 32.7733 37.0688 33.4773 37.0688 34.32ZM34.1568 34.32C34.1568 33.9893 34.0874 33.7013 33.9488 33.456C33.8101 33.2 33.6234 33.0027 33.3888 32.864C33.1541 32.7253 32.8928 32.656 32.6048 32.656C32.3594 32.656 32.1194 32.7253 31.8848 32.864C31.6608 32.992 31.4741 33.1787 31.3248 33.424C31.1754 33.6693 31.1008 33.968 31.1008 34.32C31.1008 34.672 31.1754 34.9707 31.3248 35.216C31.4741 35.4613 31.6608 35.6533 31.8848 35.792C32.1194 35.92 32.3594 35.984 32.6048 35.984C32.8928 35.984 33.1541 35.9147 33.3888 35.776C33.6234 35.6373 33.8101 35.44 33.9488 35.184C34.0874 34.928 34.1568 34.64 34.1568 34.32ZM40.6985 35.696C40.6985 35.856 40.7358 35.9947 40.8105 36.112C40.8958 36.2187 41.0078 36.304 41.1465 36.368C41.2852 36.4213 41.4345 36.448 41.5945 36.448C41.8292 36.448 42.0532 36.4 42.2665 36.304C42.4798 36.1973 42.6505 36.0373 42.7785 35.824C42.9172 35.6 42.9865 35.3227 42.9865 34.992L43.2425 35.952C43.2425 36.4213 43.1198 36.8213 42.8745 37.152C42.6398 37.4827 42.3145 37.7333 41.8985 37.904C41.4932 38.0747 41.0452 38.16 40.5545 38.16C40.0852 38.16 39.6478 38.0747 39.2425 37.904C38.8478 37.7227 38.5278 37.4613 38.2825 37.12C38.0372 36.768 37.9145 36.3413 37.9145 35.84C37.9145 35.136 38.1598 34.5813 38.6505 34.176C39.1518 33.7707 39.8718 33.568 40.8105 33.568C41.2158 33.568 41.5945 33.6053 41.9465 33.68C42.3092 33.7547 42.6238 33.856 42.8905 33.984C43.1678 34.1013 43.3758 34.2347 43.5145 34.384V35.552C43.3012 35.3707 43.0345 35.232 42.7145 35.136C42.3945 35.04 42.0585 34.992 41.7065 34.992C41.4612 34.992 41.2638 35.0187 41.1145 35.072C40.9652 35.1253 40.8585 35.2053 40.7945 35.312C40.7305 35.408 40.6985 35.536 40.6985 35.696ZM39.3545 33.056L38.4745 31.248C38.9438 31.0453 39.4825 30.8587 40.0905 30.688C40.7092 30.5067 41.3652 30.416 42.0585 30.416C42.7305 30.416 43.3332 30.512 43.8665 30.704C44.4105 30.8853 44.8372 31.1573 45.1465 31.52C45.4665 31.8827 45.6265 32.3253 45.6265 32.848V38H42.9865V33.504C42.9865 33.344 42.9598 33.2 42.9065 33.072C42.8638 32.944 42.7892 32.8373 42.6825 32.752C42.5758 32.656 42.4372 32.5867 42.2665 32.544C42.0958 32.4907 41.8985 32.464 41.6745 32.464C41.3652 32.464 41.0452 32.5013 40.7145 32.576C40.3945 32.6507 40.1118 32.736 39.8665 32.832C39.6212 32.928 39.4505 33.0027 39.3545 33.056ZM52.1171 33.52C52.1171 33.136 52.0531 32.8427 51.9251 32.64C51.7971 32.4267 51.5518 32.32 51.1891 32.32C50.9758 32.32 50.7838 32.3627 50.6131 32.448C50.4531 32.5333 50.3251 32.6667 50.2291 32.848C50.1438 33.0293 50.1011 33.2533 50.1011 33.52V38H47.3331V30.64H50.1011V31.728C50.3038 31.344 50.5865 31.04 50.9491 30.816C51.3225 30.5813 51.7918 30.464 52.3571 30.464C53.3171 30.464 53.9998 30.7093 54.4051 31.2C54.8105 31.68 55.0131 32.3573 55.0131 33.232V38H52.1171V33.52Z" fill="white"/>
<rect width="64" height="64" rx="32" fill="#FFC107"/>
<path d="M42.6066 21.3934C40.1527 18.9395 36.9239 17.4124 33.4703 17.0722C30.0166 16.7321 26.5519 17.5999 23.6664 19.528C20.781 21.456 18.6533 24.3248 17.6459 27.6457C16.6385 30.9666 16.8138 34.5341 18.1418 37.7403C19.4698 40.9464 21.8685 43.5929 24.929 45.2288C27.9896 46.8647 31.5227 47.3888 34.9264 46.7118C38.33 46.0348 41.3936 44.1985 43.5952 41.5159C45.7967 38.8333 47 35.4703 47 32H41.5106C41.5106 34.2003 40.7477 36.3326 39.3518 38.0335C37.9559 39.7344 36.0135 40.8986 33.8554 41.3279C31.6974 41.7572 29.4572 41.4249 27.5167 40.3876C25.5762 39.3504 24.0553 37.6724 23.2133 35.6396C22.3713 33.6067 22.2602 31.3448 22.8989 29.2392C23.5376 27.1336 24.8867 25.3146 26.7162 24.0922C28.5457 22.8697 30.7425 22.3195 32.9322 22.5352C35.1219 22.7508 37.1692 23.7191 38.725 25.275L42.6066 21.3934Z" fill="#0046BF"/>
</g>
<defs>
<linearGradient id="paint0_linear_871_589" x1="32" y1="0" x2="32" y2="64" gradientUnits="userSpaceOnUse">
<stop stop-color="#AEC1D2"/>
<stop offset="1" stop-color="#4F3DBA"/>
</linearGradient>
<clipPath id="clip0_871_589">
<rect width="64" height="64" rx="32" fill="white"/>
</clipPath>
</defs>
</svg>
