<svg width="24" height="25" viewBox="0 0 24 25" fill="none" xmlns="http://www.w3.org/2000/svg">
<path d="M14.5 10.0154L10.75 13.7654M22.36 1.30416C22.4786 1.26323 22.6063 1.25649 22.7286 1.28472C22.8509 1.31295 22.9627 1.37501 23.0514 1.4638C23.14 1.55259 23.2019 1.66453 23.23 1.78683C23.258 1.90913 23.2511 2.03686 23.21 2.15541L15.805 23.3179C15.7607 23.4444 15.6794 23.5547 15.5716 23.6344C15.4639 23.7141 15.3347 23.7597 15.2007 23.765C15.0668 23.7704 14.9343 23.7355 14.8205 23.6646C14.7067 23.5938 14.6168 23.4904 14.5625 23.3679L10.5387 14.3154C10.4716 14.1645 10.3509 14.0438 10.2 13.9767L1.1475 9.95166C1.02537 9.89713 0.92239 9.80723 0.851876 9.69358C0.781362 9.57993 0.746547 9.44774 0.751931 9.31409C0.757314 9.18045 0.802648 9.05149 0.882075 8.94388C0.961503 8.83627 1.07137 8.75494 1.1975 8.71041L22.36 1.30416Z" stroke="#D6DDEB" stroke-width="1.5" stroke-linecap="round" stroke-linejoin="round"/>
</svg>
