<svg width="24" height="25" viewBox="0 0 24 25" fill="none" xmlns="http://www.w3.org/2000/svg">
<path d="M20.4701 2.74062H3.53006C3.33964 2.73797 3.15056 2.77287 2.97362 2.8433C2.79669 2.91374 2.63536 3.01834 2.49886 3.15113C2.36235 3.28392 2.25334 3.4423 2.17805 3.61723C2.10276 3.79215 2.06267 3.9802 2.06006 4.17062V21.3106C2.06267 21.501 2.10276 21.6891 2.17805 21.864C2.25334 22.0389 2.36235 22.1973 2.49886 22.3301C2.63536 22.4629 2.79669 22.5675 2.97362 22.6379C3.15056 22.7084 3.33964 22.7433 3.53006 22.7406H20.4701C20.6605 22.7433 20.8496 22.7084 21.0265 22.6379C21.2034 22.5675 21.3648 22.4629 21.5013 22.3301C21.6378 22.1973 21.7468 22.0389 21.8221 21.864C21.8974 21.6891 21.9375 21.501 21.9401 21.3106V4.17062C21.9375 3.9802 21.8974 3.79215 21.8221 3.61723C21.7468 3.4423 21.6378 3.28392 21.5013 3.15113C21.3648 3.01834 21.2034 2.91374 21.0265 2.8433C20.8496 2.77287 20.6605 2.73797 20.4701 2.74062ZM8.09006 19.4806H5.09006V10.4806H8.09006V19.4806ZM6.59006 9.22062C6.17632 9.22062 5.77953 9.05626 5.48697 8.7637C5.19442 8.47115 5.03006 8.07436 5.03006 7.66062C5.03006 7.24688 5.19442 6.85009 5.48697 6.55753C5.77953 6.26498 6.17632 6.10062 6.59006 6.10062C6.80975 6.0757 7.03224 6.09747 7.24293 6.1645C7.45363 6.23153 7.6478 6.34231 7.81272 6.48958C7.97763 6.63685 8.10958 6.8173 8.19993 7.0191C8.29028 7.2209 8.33698 7.43951 8.33698 7.66062C8.33698 7.88172 8.29028 8.10033 8.19993 8.30214C8.10958 8.50394 7.97763 8.68439 7.81272 8.83166C7.6478 8.97893 7.45363 9.08971 7.24293 9.15673C7.03224 9.22376 6.80975 9.24553 6.59006 9.22062ZM18.9101 19.4806H15.9101V14.6506C15.9101 13.4406 15.4801 12.6506 14.3901 12.6506C14.0527 12.6531 13.7242 12.7589 13.4489 12.9538C13.1735 13.1487 12.9645 13.4233 12.8501 13.7406C12.7718 13.9757 12.7379 14.2232 12.7501 14.4706V19.4706H9.75006C9.75006 19.4706 9.75006 11.2906 9.75006 10.4706H12.7501V11.7406C13.0226 11.2677 13.419 10.8781 13.8965 10.6138C14.374 10.3495 14.9146 10.2205 15.4601 10.2406C17.4601 10.2406 18.9101 11.5306 18.9101 14.3006V19.4806Z" fill="#1976D2"/>
</svg>
