<svg width="24" height="25" viewBox="0 0 24 25" fill="none" xmlns="http://www.w3.org/2000/svg">
<path d="M22 6.54069C21.2483 6.86678 20.4534 7.08235 19.64 7.18069C20.4982 6.66801 21.1413 5.86147 21.45 4.91069C20.6436 5.39075 19.7608 5.72899 18.84 5.91069C18.2245 5.24326 17.405 4.79898 16.5098 4.64754C15.6147 4.49609 14.6945 4.64605 13.8938 5.07388C13.093 5.50171 12.4569 6.18322 12.0852 7.01152C11.7135 7.83983 11.6273 8.76808 11.84 9.65069C10.2094 9.56821 8.61444 9.14364 7.15865 8.40455C5.70287 7.66546 4.41885 6.62838 3.39 5.36069C3.02914 5.99086 2.83952 6.70451 2.84 7.43069C2.83872 8.10507 3.00422 8.7693 3.32176 9.36425C3.63929 9.9592 4.09902 10.4664 4.66 10.8407C4.00798 10.8229 3.36989 10.648 2.8 10.3307V10.3807C2.80489 11.3256 3.13599 12.2398 3.73731 12.9687C4.33864 13.6975 5.17326 14.1963 6.1 14.3807C5.74326 14.4893 5.37287 14.5465 5 14.5507C4.74189 14.5477 4.48442 14.5243 4.23 14.4807C4.49391 15.2935 5.00462 16.0038 5.69107 16.5128C6.37753 17.0219 7.20558 17.3042 8.06 17.3207C6.6172 18.456 4.83588 19.0755 3 19.0807C2.66574 19.0818 2.33174 19.0617 2 19.0207C3.87443 20.2309 6.05881 20.8734 8.29 20.8707C9.82969 20.8867 11.3571 20.5957 12.7831 20.0148C14.2091 19.4338 15.505 18.5746 16.5952 17.4872C17.6854 16.3998 18.548 15.1061 19.1326 13.6816C19.7172 12.2571 20.012 10.7304 20 9.19069C20 9.02069 20 8.84069 20 8.66069C20.7847 8.0755 21.4615 7.35811 22 6.54069Z" fill="#1976D2"/>
</svg>
