<svg width="15" height="16" viewBox="0 0 15 16" fill="none" xmlns="http://www.w3.org/2000/svg">
<path fill-rule="evenodd" clip-rule="evenodd" d="M0.715945 1.318C0.943075 1.08577 1.25109 0.955306 1.57225 0.955306C1.89341 0.955306 2.20142 1.08577 2.42855 1.318L7.62815 6.63598L12.8277 1.318C12.9395 1.19968 13.0731 1.10531 13.2209 1.04039C13.3687 0.975468 13.5276 0.941295 13.6884 0.939866C13.8492 0.938437 14.0087 0.969779 14.1576 1.03206C14.3064 1.09435 14.4416 1.18633 14.5554 1.30264C14.6691 1.41895 14.759 1.55726 14.8199 1.7095C14.8808 1.86174 14.9115 2.02486 14.9101 2.18934C14.9087 2.35382 14.8753 2.51637 14.8118 2.6675C14.7483 2.81864 14.656 2.95533 14.5404 3.0696L9.34076 8.38758L14.5404 13.7056C14.761 13.9392 14.8831 14.2521 14.8803 14.5769C14.8775 14.9017 14.7502 15.2124 14.5256 15.4421C14.301 15.6717 13.9973 15.802 13.6797 15.8048C13.3621 15.8077 13.0562 15.6828 12.8277 15.4572L7.62815 10.1392L2.42855 15.4572C2.20012 15.6828 1.89418 15.8077 1.57661 15.8048C1.25904 15.802 0.955262 15.6717 0.730699 15.4421C0.506137 15.2124 0.378758 14.9017 0.375998 14.5769C0.373239 14.2521 0.495319 13.9392 0.715945 13.7056L5.91554 8.38758L0.715945 3.0696C0.488884 2.8373 0.361328 2.52227 0.361328 2.1938C0.361328 1.86532 0.488884 1.5503 0.715945 1.318Z" fill="#25324B"/>
</svg>
