<svg width="24" height="25" viewBox="0 0 24 25" fill="none" xmlns="http://www.w3.org/2000/svg">
<path fillRule="evenodd" clip-rule="evenodd" d="M12 5.74072C11.4696 5.74072 10.9609 5.95144 10.5858 6.32651C10.2107 6.70158 10 7.21029 10 7.74072C10 8.27116 10.2107 8.77986 10.5858 9.15494C10.9609 9.53001 11.4696 9.74072 12 9.74072C12.5304 9.74072 13.0391 9.53001 13.4142 9.15494C13.7893 8.77986 14 8.27116 14 7.74072C14 7.21029 13.7893 6.70158 13.4142 6.32651C13.0391 5.95144 12.5304 5.74072 12 5.74072ZM9.17157 4.9123C9.92172 4.16215 10.9391 3.74072 12 3.74072C13.0609 3.74072 14.0783 4.16215 14.8284 4.9123C15.5786 5.66244 16 6.67986 16 7.74072C16 8.80159 15.5786 9.819 14.8284 10.5691C14.0783 11.3193 13.0609 11.7407 12 11.7407C10.9391 11.7407 9.92172 11.3193 9.17157 10.5691C8.42143 9.819 8 8.80159 8 7.74072C8 6.67986 8.42143 5.66244 9.17157 4.9123ZM5 9.74072C4.73478 9.74072 4.48043 9.84608 4.29289 10.0336C4.10536 10.2212 4 10.4755 4 10.7407C4 11.0059 4.10536 11.2603 4.29289 11.4478C4.48043 11.6354 4.73478 11.7407 5 11.7407C5.26522 11.7407 5.51957 11.6354 5.70711 11.4478C5.89464 11.2603 6 11.0059 6 10.7407C6 10.4755 5.89464 10.2212 5.70711 10.0336C5.51957 9.84608 5.26522 9.74072 5 9.74072ZM2.87868 8.6194C3.44129 8.05679 4.20435 7.74072 5 7.74072C5.79565 7.74072 6.55871 8.05679 7.12132 8.6194C7.68393 9.18201 8 9.94507 8 10.7407C8 11.5364 7.68393 12.2994 7.12132 12.862C6.55871 13.4247 5.79565 13.7407 5 13.7407C4.20435 13.7407 3.44129 13.4247 2.87868 12.862C2.31607 12.2994 2 11.5364 2 10.7407C2 9.94507 2.31607 9.18201 2.87868 8.6194ZM19 9.74072C18.7348 9.74072 18.4804 9.84608 18.2929 10.0336C18.1054 10.2212 18 10.4755 18 10.7407C18 11.0059 18.1054 11.2603 18.2929 11.4478C18.4804 11.6354 18.7348 11.7407 19 11.7407C19.2652 11.7407 19.5196 11.6354 19.7071 11.4478C19.8946 11.2603 20 11.0059 20 10.7407C20 10.4755 19.8946 10.2212 19.7071 10.0336C19.5196 9.84608 19.2652 9.74072 19 9.74072ZM16.8787 8.6194C17.4413 8.05679 18.2043 7.74072 19 7.74072C19.7957 7.74072 20.5587 8.05679 21.1213 8.6194C21.6839 9.18201 22 9.94507 22 10.7407C22 11.5364 21.6839 12.2994 21.1213 12.862C20.5587 13.4247 19.7957 13.7407 19 13.7407C18.2043 13.7407 17.4413 13.4247 16.8787 12.862C16.3161 12.2994 16 11.5364 16 10.7407C16 9.94507 16.3161 9.18201 16.8787 8.6194ZM12 14.74C11.2003 14.74 10.4189 14.9796 9.75658 15.4279C9.13228 15.8506 8.64084 16.4404 8.33765 17.1286L8.09655 19.7407H15.9034L15.6623 17.1286C15.3592 16.4404 14.8677 15.8506 14.2434 15.4279C13.5811 14.9796 12.7997 14.74 12 14.74ZM18 19.7407H21V18.7408C21 18.7408 21 18.7408 21 18.7408C21 18.3252 20.8704 17.9198 20.6294 17.5812C20.3884 17.2426 20.0479 16.9875 19.6552 16.8513C19.2625 16.7151 18.8371 16.7047 18.4382 16.8215C18.2014 16.8908 17.981 17.0028 17.7871 17.1507C17.9262 17.6582 18 18.1917 18 18.7407V19.7407ZM16.9298 15.3184C16.51 14.7139 15.9804 14.1886 15.3646 13.7717C14.3713 13.0994 13.1994 12.74 12 12.74C10.8006 12.74 9.62867 13.0994 8.63543 13.7717C8.01963 14.1886 7.49002 14.7139 7.07024 15.3184C6.77575 15.1402 6.45782 14.9998 6.12365 14.902C5.32584 14.6685 4.47509 14.6893 3.68967 14.9617C2.90425 15.234 2.22318 15.7442 1.74115 16.4215C1.25911 17.0987 1.00006 17.9094 1 18.7406V20.7407C1 21.293 1.44772 21.7407 2 21.7407H22C22.5523 21.7407 23 21.293 23 20.7407V18.7407C22.9999 17.9094 22.7409 17.0987 22.2589 16.4215C21.7768 15.7442 21.0958 15.234 20.3103 14.9617C19.5249 14.6893 18.6742 14.6685 17.8763 14.902C17.5422 14.9998 17.2242 15.1402 16.9298 15.3184ZM6.21295 17.1507C6.01904 17.0028 5.79859 16.8908 5.56183 16.8215C5.16292 16.7047 4.73754 16.7151 4.34483 16.8513C3.95212 16.9875 3.61159 17.2426 3.37057 17.5812C3.12957 17.9198 3.00005 18.3251 3 18.7407C3 18.7407 3 18.7407 3 18.7407V19.7407H6V18.7407C6 18.1917 6.07383 17.6582 6.21295 17.1507Z" fill="#1976D2"/>
</svg>
