<svg width="24" height="25" viewBox="0 0 24 25" fill="none" xmlns="http://www.w3.org/2000/svg">
<path d="M8.4678 9.13518L8.46555 9.13701L8.46341 9.13909L8.4678 9.13518ZM18.4219 8.94865C18.3523 8.88159 18.2751 8.82292 18.1919 8.77383C18.0741 8.7045 17.9433 8.66006 17.8076 8.64328C17.672 8.62649 17.5343 8.63771 17.4031 8.67625C17.272 8.71478 17.1501 8.77981 17.0451 8.86731C16.9401 8.95481 16.8541 9.06293 16.7925 9.18498C16.448 9.86367 15.9729 10.4677 15.3945 10.9623C15.483 10.4639 15.5276 9.95873 15.5278 9.45254C15.5297 7.91265 15.1234 6.39975 14.3505 5.06791C13.5775 3.73606 12.4654 2.63283 11.1274 1.87054C10.98 1.78699 10.8138 1.74225 10.6444 1.74053C10.475 1.73881 10.3079 1.78015 10.1588 1.86069C10.0098 1.94122 9.88362 2.05831 9.7922 2.20096C9.70078 2.3436 9.6471 2.50714 9.6362 2.67621C9.58024 3.62439 9.33236 4.55133 8.90759 5.40088C8.48282 6.25043 7.88999 7.0049 7.16503 7.61858L6.93456 7.80608C6.17648 8.31616 5.50546 8.94498 4.94726 9.66837C4.07958 10.7615 3.47851 12.0417 3.19172 13.4076C2.90493 14.7734 2.94031 16.1873 3.29506 17.537C3.6498 18.8868 4.31415 20.1354 5.23543 21.1837C6.1567 22.2321 7.30956 23.0513 8.60257 23.5766C8.75439 23.6386 8.91914 23.6623 9.08229 23.6457C9.24545 23.629 9.40198 23.5724 9.5381 23.4809C9.67422 23.3894 9.78573 23.2658 9.8628 23.1211C9.93987 22.9763 9.98013 22.8148 9.98003 22.6508C9.97932 22.5447 9.96252 22.4394 9.93023 22.3383C9.7065 21.4973 9.64208 20.6219 9.74028 19.7572C10.6865 21.542 12.2054 22.9566 14.0528 23.7738C14.2783 23.8747 14.5332 23.8883 14.7681 23.8119C16.2277 23.3408 17.5425 22.5044 18.5878 21.382C19.633 20.2596 20.3739 18.8886 20.74 17.3992C21.1061 15.9099 21.0853 14.3516 20.6796 12.8726C20.2739 11.3935 19.4967 10.0427 18.4219 8.94865ZM14.5171 21.7797C13.6454 21.3379 12.8765 20.7176 12.2603 19.9592C11.6441 19.2007 11.1944 18.321 10.9405 17.3774C10.8629 17.0596 10.8029 16.7378 10.7608 16.4135C10.7322 16.2069 10.6398 16.0145 10.4965 15.863C10.3532 15.7116 10.1661 15.6087 9.96146 15.5688C9.89841 15.5563 9.8343 15.5501 9.77003 15.5502C9.59427 15.5502 9.42161 15.5964 9.26944 15.6844C9.11728 15.7724 8.991 15.8989 8.90333 16.0512C8.0736 17.4823 7.65633 19.1152 7.69776 20.769C6.968 20.2016 6.35811 19.495 5.90344 18.6902C5.44876 17.8853 5.15835 16.9983 5.04903 16.0804C4.93971 15.1625 5.01366 14.232 5.26658 13.3429C5.51951 12.4538 5.94639 11.6237 6.52247 10.9008C6.95989 10.3327 7.48756 9.84012 8.08447 9.44282C8.11032 9.42614 8.1351 9.40788 8.15869 9.38813C8.15869 9.38813 8.45538 9.14265 8.46552 9.13703C9.89022 7.932 10.9035 6.31255 11.3643 4.50434C12.4538 5.51158 13.1804 6.85037 13.431 8.31285C13.6817 9.77533 13.4425 11.2797 12.7505 12.5922C12.6591 12.7674 12.6216 12.9657 12.6427 13.1621C12.6639 13.3586 12.7427 13.5443 12.8693 13.696C12.9959 13.8477 13.1646 13.9585 13.3541 14.0144C13.5436 14.0703 13.7454 14.0689 13.9341 14.0102C15.4659 13.5301 16.8138 12.5922 17.7964 11.3227C18.3869 12.195 18.773 13.1893 18.9259 14.2316C19.0787 15.2738 18.9944 16.3371 18.6792 17.3423C18.364 18.3474 17.826 19.2685 17.1054 20.0368C16.3847 20.8051 15.5 21.4009 14.5171 21.7797L14.5171 21.7797Z" fill="#1976D2"/>
</svg>
