<svg width="32" height="33" viewBox="0 0 32 33" fill="none" xmlns="http://www.w3.org/2000/svg">
<rect y="0.179688" width="32" height="32" rx="16" fill="#1976D2"/>
<path d="M21.4123 8.96094H24.0312L18.3098 15.5001L25.0405 24.3984H19.7696L15.6419 19.0016L10.9188 24.3984H8.29837L14.418 17.4041L7.96191 8.96094H13.365L17.0962 13.8938L21.4123 8.96094ZM20.4932 22.8309H21.9443L12.5773 10.4461H11.0201L20.4932 22.8309Z" fill="white"/>
<path d="M21.4123 8.96094H24.0312L18.3098 15.5001L25.0405 24.3984H19.7696L15.6419 19.0016L10.9188 24.3984H8.29837L14.418 17.4041L7.96191 8.96094H13.365L17.0962 13.8938L21.4123 8.96094ZM20.4932 22.8309H21.9443L12.5773 10.4461H11.0201L20.4932 22.8309Z" fill="white"/>
</svg>
