<svg width="64" height="64" viewBox="0 0 64 64" fill="none" xmlns="http://www.w3.org/2000/svg">
<g clip-path="url(#clip0_871_565)">
<rect width="64" height="64" rx="32" fill="url(#paint0_linear_871_565)"/>
<g clip-path="url(#clip1_871_565)">
<rect width="64" height="64" rx="32" fill="#D1E1FD"/>
<circle cx="26.9336" cy="33.0088" r="9.49367" fill="#1976D2"/>
<circle cx="36.4273" cy="37.1861" r="9.49367" fill="#0046BF"/>
<circle cx="34.9082" cy="26.1734" r="9.49367" fill="#002360"/>
<g clip-path="url(#clip2_871_565)">
<rect width="64" height="64" rx="32" fill="#4CAF50"/>
<rect width="64" height="64" rx="32" fill="url(#paint1_linear_871_565)"/>
<path d="M45.5952 27.0995C43.1413 24.6456 31.4179 19.322 27.9643 18.9818C24.5107 18.6417 30.3705 16.9538 25.6664 18.9818C22.781 20.9098 20.6533 23.7786 19.6459 27.0995C18.6385 30.4204 18.8138 33.9879 20.1418 37.194C21.4698 40.4002 23.8685 43.0467 26.9291 44.6826C29.9896 46.3185 33.5227 46.8426 36.9264 46.1656C40.33 45.4885 43.3936 29.7821 45.5952 27.0995C47.7967 24.4169 39.0501 30.5698 39.0501 27.0995L40.533 31.4538C40.533 32.9652 40.0089 34.4299 39.0501 35.5983C38.0912 36.7667 36.7569 37.5664 35.2745 37.8613C33.7921 38.1561 32.2533 37.9279 30.9204 37.2154C29.5874 36.5029 28.5427 35.3503 27.9643 33.9539C27.3859 32.5575 27.3096 31.0037 27.7483 29.5574C28.1871 28.111 29.1137 26.8615 30.3705 26.0218C31.6272 25.1821 33.1362 24.8041 34.6403 24.9523C36.1445 25.1004 37.5508 25.7655 38.6195 26.8343L45.5952 27.0995Z" fill="#25FCEF"/>
</g>
</g>
</g>
<defs>
<linearGradient id="paint0_linear_871_565" x1="32" y1="0" x2="32" y2="64" gradientUnits="userSpaceOnUse">
<stop stop-color="#AEC1D2"/>
<stop offset="1" stop-color="#4F3DBA"/>
</linearGradient>
<linearGradient id="paint1_linear_871_565" x1="7.31429" y1="5.48571" x2="57.6" y2="60.3429" gradientUnits="userSpaceOnUse">
<stop stop-color="#002360"/>
<stop offset="1" stop-color="#0048C6"/>
</linearGradient>
<clipPath id="clip0_871_565">
<rect width="64" height="64" rx="32" fill="white"/>
</clipPath>
<clipPath id="clip1_871_565">
<rect width="64" height="64" rx="32" fill="white"/>
</clipPath>
<clipPath id="clip2_871_565">
<rect width="64" height="64" rx="32" fill="white"/>
</clipPath>
</defs>
</svg>
