<svg width="24" height="25" viewBox="0 0 24 25" fill="none" xmlns="http://www.w3.org/2000/svg">
<path d="M21 8.22168H3C2.59 8.22168 2.25 7.88168 2.25 7.47168C2.25 7.06168 2.59 6.72168 3 6.72168H21C21.41 6.72168 21.75 7.06168 21.75 7.47168C21.75 7.88168 21.41 8.22168 21 8.22168Z" fill="#292D32"/>
<path d="M21 13.2217H3C2.59 13.2217 2.25 12.8817 2.25 12.4717C2.25 12.0617 2.59 11.7217 3 11.7217H21C21.41 11.7217 21.75 12.0617 21.75 12.4717C21.75 12.8817 21.41 13.2217 21 13.2217Z" fill="#292D32"/>
<path d="M21 18.2217H3C2.59 18.2217 2.25 17.8817 2.25 17.4717C2.25 17.0617 2.59 16.7217 3 16.7217H21C21.41 16.7217 21.75 17.0617 21.75 17.4717C21.75 17.8817 21.41 18.2217 21 18.2217Z" fill="#292D32"/>
</svg>
