<svg width="438" height="15" viewBox="0 0 438 15" fill="none" xmlns="http://www.w3.org/2000/svg">
<path d="M9.81838 6.41057C13.2398 6.41057 16.8242 6.351 20.2457 6.29142C21.712 6.29142 23.0154 6.23185 24.4817 6.23185C30.6729 6.1127 36.8642 5.99355 43.0554 5.8744C50.55 5.75525 57.8816 5.57653 65.3763 5.45738C75.9665 5.21908 86.5567 5.04036 97.1469 4.80206C99.5908 4.74248 102.035 4.74248 104.479 4.68291C110.67 4.56376 116.861 4.44461 123.052 4.38504C129.243 4.26589 135.435 4.14674 141.626 4.08716C144.07 4.02759 146.514 3.96802 148.957 3.96802C158.733 3.84887 168.672 3.72972 178.447 3.61057C184.475 3.55099 190.504 3.49142 196.695 3.37227C199.139 3.37227 201.42 3.31269 203.864 3.31269C213.313 3.25312 222.926 3.19355 232.376 3.13397C241.825 3.0744 251.112 3.01482 260.562 2.95525C263.006 2.95525 265.45 2.95525 268.057 2.95525C274.248 2.95525 280.276 2.95525 286.467 2.95525C296.08 2.95525 305.53 2.95525 315.142 2.89567C318.238 2.89567 321.334 2.89567 324.429 2.89567C330.946 2.89567 337.463 2.89567 343.98 2.89567C344.469 2.89567 345.121 2.89567 345.61 2.89567C330.946 2.95525 316.12 3.01482 301.456 3.13397C295.265 3.19355 289.237 3.19355 283.046 3.25312C280.439 3.25312 277.669 3.25312 275.062 3.31269C266.102 3.37227 257.303 3.49142 248.342 3.55099C238.078 3.67014 227.814 3.72972 217.549 3.84887C215.757 3.84887 214.128 3.90844 212.336 3.90844C206.796 4.02759 201.42 4.08716 195.88 4.20631C184.801 4.38504 173.722 4.56376 162.643 4.74248C161.014 4.74248 159.385 4.80206 157.755 4.86164C152.379 4.98078 146.839 5.15951 141.463 5.27866C131.687 5.51695 122.075 5.75525 112.299 5.99355C109.692 6.05312 106.922 6.17227 104.316 6.23185C98.1244 6.41057 91.9332 6.58929 85.742 6.82759C77.9216 7.06589 69.9382 7.30419 62.1177 7.54249C51.2017 7.89994 40.1227 8.25738 29.2066 8.61483C26.5998 8.6744 23.993 8.79355 21.2232 8.85313C16.4984 9.03185 11.7735 9.21058 7.04863 9.3893C6.55985 9.3893 6.07107 9.50845 6.07107 9.74675C6.07107 9.92547 6.55985 10.1042 7.04863 10.1042C8.84082 10.1042 10.4701 10.1638 12.2623 10.1638C12.0993 10.3425 11.9364 10.5212 11.9364 10.6999C11.9364 11.3553 13.4028 11.951 15.3579 11.951C28.8808 11.6531 42.2407 11.2957 55.7636 11.0574C67.4943 10.8787 79.225 10.6404 90.9557 10.4616C103.827 10.2233 116.861 9.98505 129.732 9.80632C133.805 9.74675 137.878 9.68717 141.952 9.56802C143.092 9.56802 144.233 9.50845 145.536 9.50845C166.391 9.32972 187.245 9.09143 208.1 8.9127C219.179 8.79355 230.421 8.6744 241.5 8.61483C245.573 8.55525 249.483 8.55526 253.556 8.49568C274.9 8.37653 296.243 8.25738 317.586 8.13824C326.71 8.07866 335.834 8.01908 344.958 7.95951C352.778 7.89994 360.599 7.89993 368.419 7.78078C374.936 7.72121 381.29 7.60206 387.807 7.54249C391.066 7.48292 394.324 7.48291 397.42 7.42334C404.752 7.24461 412.083 7.06589 419.415 6.88717C418.926 7.12546 418.926 7.48291 419.089 7.72121C419.252 8.01908 419.741 8.25738 420.556 8.37653C421.207 8.49568 422.185 8.61483 422.837 8.49568C424.466 8.25738 426.095 8.01908 427.561 7.78078C427.561 7.78078 427.561 7.78078 427.399 7.78078C427.561 7.78078 427.561 7.72121 427.724 7.72121C427.887 7.72121 428.05 7.66164 428.05 7.66164H427.887C428.702 7.54249 429.517 7.42334 430.494 7.24462C431.309 7.12547 432.286 6.94674 433.101 6.82759C434.079 6.64887 434.893 6.47014 435.871 6.29142C436.848 6.1127 437.5 5.6361 437.5 5.21908C437.5 4.98078 437.337 4.80206 437.011 4.56376C436.685 4.32546 435.871 4.02759 435.056 3.96802C434.241 3.90844 433.427 3.84887 432.612 3.84887C432.449 3.84887 432.286 3.84887 432.123 3.84887C431.635 3.84887 430.983 3.84886 430.494 3.90844C429.191 3.96801 428.05 4.02759 426.747 4.02759C425.769 4.02759 424.792 4.08716 423.651 4.08716C420.882 4.14674 418.275 4.20631 415.505 4.32546C414.853 4.32546 414.039 4.38504 413.387 4.38504C413.713 4.26589 413.876 4.14674 413.876 4.02759C414.039 3.90844 414.039 3.78929 414.039 3.67014C414.039 3.61057 414.039 3.49142 414.202 3.43185C414.202 3.3127 414.202 3.19355 414.039 3.13397C414.039 3.13397 414.202 3.13397 414.202 3.0744C414.69 2.95525 415.179 2.8361 415.505 2.5978C415.831 2.41908 415.994 2.18078 415.994 1.94248C415.994 1.70418 415.831 1.52546 415.505 1.28716C415.342 1.22759 415.179 1.10844 415.016 1.04886C414.527 0.87014 414.039 0.810566 413.55 0.750991C412.572 0.631842 411.432 0.572266 410.291 0.572266C409.314 0.572266 408.499 0.572266 407.522 0.572266C406.218 0.572266 404.915 0.572266 403.611 0.572266C401.819 0.572266 399.864 0.572266 398.072 0.572266C393.184 0.572266 388.296 0.572266 383.408 0.572266C378.846 0.572266 374.122 0.572266 369.56 0.572266C365.324 0.572266 361.25 0.572266 357.014 0.572266C340.233 0.572266 323.614 0.631843 306.833 0.691417C294.288 0.750992 281.742 0.810565 269.197 0.810565C263.658 0.810565 257.955 0.870137 252.416 0.929712C239.87 1.04886 227.325 1.10844 214.78 1.22758C211.195 1.22758 207.611 1.28716 204.027 1.28716C201.909 1.28716 199.953 1.34674 197.835 1.34674C185.453 1.52546 173.071 1.70418 160.688 1.88291C156.941 1.94248 153.194 2.00205 149.283 2.06163C147.165 2.06163 145.047 2.12121 142.929 2.18078C130.547 2.41908 118.327 2.65738 105.945 2.89567C99.5908 3.01482 93.2367 3.13397 86.8825 3.31269C75.9665 3.55099 65.0504 3.78929 54.2973 4.08716C44.8475 4.32546 35.3978 4.50419 25.9481 4.68291C24.4817 4.74248 23.0154 4.74248 21.3861 4.80206C18.9423 4.86163 16.4984 4.86163 14.0545 4.92121C11.9364 4.98078 9.81838 4.98078 7.53741 4.98078C7.37448 4.80206 6.72278 4.62334 6.234 4.62334C4.76766 4.68291 3.46425 4.74248 1.99792 4.80206C1.34621 4.80206 0.694504 4.92121 0.531578 5.21908C0.368651 5.51695 0.857429 5.81483 1.50913 5.8744C2.16084 5.93398 2.64962 5.99355 3.30132 6.05313C3.95303 6.1127 4.44181 6.1127 5.09351 6.1127C6.72278 6.351 8.18911 6.351 9.81838 6.41057ZM391.066 4.44461C393.021 4.44461 395.139 4.44461 397.094 4.44461C397.257 4.62333 397.583 4.74249 397.909 4.86164C397.094 4.86164 396.28 4.92121 395.628 4.92121C394.162 4.92121 392.695 4.98078 391.229 4.98078C384.712 5.04036 378.358 5.15951 371.841 5.21908C368.908 5.27866 365.975 5.33823 363.043 5.33823C358.481 5.33823 353.756 5.3978 349.194 5.3978C338.604 5.45738 328.176 5.51695 317.586 5.57653C297.057 5.69568 276.692 5.81483 256.163 5.93397C241.5 5.99355 226.836 6.17228 212.173 6.351C190.178 6.5893 168.02 6.76802 146.025 7.00632C141.626 7.06589 137.227 7.12547 132.828 7.24462C120.282 7.48292 107.737 7.66164 95.1918 7.89994C82.9723 8.13823 70.5899 8.31696 58.3704 8.55526C57.2299 8.55526 56.0895 8.61483 54.949 8.61483C58.2075 8.49568 61.6289 8.43611 64.8875 8.31696C76.4552 8.01908 88.023 7.66164 99.5908 7.36376C103.664 7.24462 107.737 7.12547 111.647 7.00632C113.765 6.94674 115.883 6.88717 117.839 6.88717C129.895 6.64887 141.952 6.351 154.008 6.1127C156.289 6.05313 158.733 5.99355 161.014 5.93397C164.435 5.8744 167.857 5.81483 171.115 5.81483C183.498 5.6361 195.88 5.45738 208.263 5.27866C211.032 5.21908 213.802 5.21908 216.409 5.15951C217.061 5.15951 217.875 5.15951 218.527 5.15951C220.482 5.15951 222.437 5.1595 224.229 5.09993C236.612 4.98078 249.157 4.92121 261.54 4.80206C267.242 4.74248 272.944 4.68291 278.647 4.68291C297.057 4.62334 315.631 4.56376 334.042 4.50418C353.43 4.50418 372.329 4.50419 391.066 4.44461Z" fill="#26A4FF"/>
<path d="M34.4194 14.5723C34.9593 14.5723 35.397 14.4123 35.397 14.2149C35.397 14.0175 34.9593 13.8574 34.4194 13.8574C33.8796 13.8574 33.4419 14.0175 33.4419 14.2149C33.4419 14.4123 33.8796 14.5723 34.4194 14.5723Z" fill="#26A4FF"/>
</svg>
