<svg width="30" height="31" viewBox="0 0 30 31" fill="none" xmlns="http://www.w3.org/2000/svg">
<path d="M14.8 26.4L14.32 25.86C14.02 25.56 7 17.28 7 12.3C7 7.98 10.48 4.5 14.8 4.5C19.12 4.5 22.6 7.98 22.6 12.3C22.6 17.28 15.58 25.56 15.28 25.92L14.8 26.4ZM14.8 5.7C11.14 5.7 8.2 8.64 8.2 12.3C8.2 16.14 13.24 22.62 14.8 24.54C16.36 22.62 21.4 16.14 21.4 12.3C21.4 8.64 18.46 5.7 14.8 5.7Z" fill="black"/>
<path d="M15 14.8999C13.32 14.8999 12 13.5799 12 11.8999C12 10.2199 13.32 8.8999 15 8.8999C16.68 8.8999 18 10.2199 18 11.8999C18 13.5799 16.68 14.8999 15 14.8999ZM15 10.0999C13.98 10.0999 13.2 10.8799 13.2 11.8999C13.2 12.9199 13.98 13.6999 15 13.6999C16.02 13.6999 16.8 12.9199 16.8 11.8999C16.8 10.8799 16.02 10.0999 15 10.0999Z" fill="black"/>
</svg>
