<svg width="64" height="64" viewBox="0 0 64 64" fill="none" xmlns="http://www.w3.org/2000/svg">
<g clip-path="url(#clip0_871_512)">
<rect width="64" height="64" rx="32" fill="#D1E1FD"/>
<circle cx="28.2405" cy="33.1196" r="8" fill="#1976D2"/>
<circle cx="36.2405" cy="36.6396" r="8" fill="#0046BF"/>
<circle cx="34.9604" cy="27.3599" r="8" fill="#002360"/>
<g clip-path="url(#clip1_871_512)">
<rect width="64" height="64" rx="32" fill="#4CAF50"/>
<g clip-path="url(#clip2_871_512)">
<rect width="64" height="64" rx="32" fill="url(#paint0_linear_871_512)"/>
<path d="M45.5952 27.0995C43.1413 24.6456 31.4179 19.322 27.9643 18.9818C24.5107 18.6417 30.3705 16.9538 25.6664 18.9818C22.781 20.9098 20.6533 23.7786 19.6459 27.0995C18.6385 30.4204 18.8138 33.9879 20.1418 37.194C21.4698 40.4002 23.8685 43.0467 26.9291 44.6826C29.9896 46.3185 33.5227 46.8426 36.9264 46.1656C40.33 45.4885 43.3936 29.7821 45.5952 27.0995C47.7967 24.4169 39.0501 30.5698 39.0501 27.0995L40.533 31.4538C40.533 32.9652 40.0089 34.4299 39.0501 35.5983C38.0912 36.7667 36.7569 37.5664 35.2745 37.8613C33.7921 38.1561 32.2533 37.9279 30.9204 37.2154C29.5874 36.5029 28.5427 35.3503 27.9643 33.9539C27.3859 32.5575 27.3096 31.0037 27.7483 29.5574C28.1871 28.111 29.1137 26.8615 30.3705 26.0218C31.6272 25.1821 33.1362 24.8041 34.6403 24.9523C36.1445 25.1004 37.5508 25.7655 38.6195 26.8343L45.5952 27.0995Z" fill="#25FCEF"/>
<g clip-path="url(#clip3_871_512)">
<rect width="64" height="64" rx="32" fill="#ED49C9"/>
<path d="M14.0405 18.7148H24.9976L43.9624 38.3633V26.6055C43.9624 25.1732 43.715 23.9232 43.2202 22.8555C42.7384 21.7747 42.0353 20.9544 41.1108 20.3945C40.616 20.082 40.1147 19.8607 39.6069 19.7305C39.1121 19.6003 38.4155 19.5026 37.5171 19.4375V18.7148H51.0327V19.4375H50.7593C48.7931 19.4375 47.2957 20.0625 46.2671 21.3125C45.2384 22.5625 44.7241 24.3789 44.7241 26.7617V46.2734H44.0796L20.5249 22.0742V38.2852C20.5249 39.8607 20.7137 41.1237 21.0913 42.0742C21.4689 43.0117 22.0809 43.7474 22.9272 44.2812C23.6174 44.6979 24.4572 44.9648 25.4468 45.082C25.9937 45.1732 26.7749 45.2383 27.7905 45.2773V46H13.5522V45.2773C15.0106 45.1992 16.1955 44.9453 17.1069 44.5156C18.0314 44.0729 18.7085 43.4219 19.1382 42.5625C19.5809 41.7031 19.8022 40.6354 19.8022 39.3594V23.9297C19.8022 22.9792 19.5874 22.1719 19.1577 21.5078C18.741 20.8438 18.1291 20.3359 17.3218 19.9844C16.5145 19.6198 15.5379 19.4375 14.3921 19.4375H14.0405V18.7148Z" fill="white"/>
<rect width="64" height="64" rx="32" fill="#4CAF50"/>
<path d="M55.9998 32C55.9998 26.4475 54.0745 21.0667 50.552 16.7746C47.0295 12.4824 42.1278 9.5444 36.6819 8.46115C31.2361 7.37791 25.5831 8.21645 20.6862 10.8339C15.7893 13.4513 11.9515 17.6857 9.82665 22.8156C7.70179 27.9455 7.42137 33.6534 9.03319 38.9668C10.645 44.2803 14.0493 48.8704 18.6661 51.9553C23.2828 55.0401 28.8264 56.4287 34.3522 55.8844C39.878 55.3402 45.0441 52.8968 48.9703 48.9706L41.5889 41.5892C39.3704 43.8077 36.4513 45.1883 33.329 45.4958C30.2066 45.8033 27.0743 45.0187 24.4656 43.2757C21.8569 41.5326 19.9333 38.9389 19.0226 35.9366C18.1118 32.9342 18.2703 29.709 19.4709 26.8104C20.6716 23.9118 22.8401 21.5191 25.6071 20.0402C28.3741 18.5612 31.5682 18.0874 34.6454 18.6995C37.7225 19.3115 40.4923 20.9717 42.4826 23.3969C44.473 25.8222 45.5609 28.8626 45.5609 32H55.9998Z" fill="#0EEB74"/>
</g>
</g>
</g>
</g>
<defs>
<linearGradient id="paint0_linear_871_512" x1="7.31429" y1="5.48571" x2="57.6" y2="60.3429" gradientUnits="userSpaceOnUse">
<stop stop-color="#002360"/>
<stop offset="1" stop-color="#0048C6"/>
</linearGradient>
<clipPath id="clip0_871_512">
<rect width="64" height="64" rx="32" fill="white"/>
</clipPath>
<clipPath id="clip1_871_512">
<rect width="64" height="64" rx="32" fill="white"/>
</clipPath>
<clipPath id="clip2_871_512">
<rect width="64" height="64" rx="32" fill="white"/>
</clipPath>
<clipPath id="clip3_871_512">
<rect width="64" height="64" rx="32" fill="white"/>
</clipPath>
</defs>
</svg>
