<svg width="100" height="92" viewBox="0 0 100 92" fill="none" xmlns="http://www.w3.org/2000/svg">
<g clip-path="url(#clip0_240_16)">
<path d="M3.15185 82.7611H0V81.6139H7.65926V82.7611H4.50463V91.4037H3.15185V82.7611Z" fill="#1B1B1B"/>
<path d="M10.0399 81.0713V85.2981C10.4019 84.6796 11.0482 84.087 12.2602 84.087C13.4723 84.087 14.6667 84.7241 14.6667 86.8398V91.4037H13.3945V87.0509C13.3945 85.8518 12.8908 85.188 11.863 85.188C10.588 85.188 10.0399 86.0361 10.0399 87.5028V91.4037H8.76208V81.0713H10.0399Z" fill="#1B1B1B"/>
<path d="M17.5464 88.0657C17.5547 89.487 18.2704 90.511 19.4704 90.511C20.5834 90.511 20.9417 89.9434 21.1677 89.4259H22.4538C22.1741 90.3388 21.4065 91.5731 19.4315 91.5731C17.1778 91.5731 16.2556 89.7508 16.2556 87.9083C16.2556 85.7758 17.3306 84.0879 19.5112 84.0879C21.8251 84.0879 22.5852 85.9333 22.5852 87.4731C22.5852 87.6916 22.5852 87.8721 22.5658 88.0666H17.5473L17.5464 88.0657ZM21.2899 87.1759C21.276 86.0203 20.6991 85.0897 19.4927 85.0897C18.2862 85.0897 17.7112 85.9518 17.588 87.1759H21.2889H21.2899Z" fill="#1B1B1B"/>
<path d="M29.2213 81.6139V91.4037H27.8768V81.6139H29.2213Z" fill="#1B1B1B"/>
<path d="M31.4056 86.0573C31.4056 85.4379 31.4056 84.8083 31.3917 84.2564H32.6334C32.6667 84.4657 32.6862 85.2018 32.6834 85.4157C32.9658 84.811 33.5491 84.0879 34.9232 84.0879C36.2973 84.0879 37.3102 84.9166 37.3102 86.8101V91.4036H36.0325V86.9712C36.0325 85.9073 35.6195 85.1888 34.5408 85.1888C33.2223 85.1888 32.6834 86.1823 32.6834 87.6083V91.4036H31.4065V86.0573H31.4056Z" fill="#1B1B1B"/>
<path d="M38.4073 84.2564H39.6351V82.1573H40.9129V84.2564H42.4805V85.2916H40.9129V89.4398C40.9129 90.1259 41.0814 90.4731 41.7249 90.4731C41.8925 90.4731 42.1453 90.4648 42.3379 90.4157V91.3703C42.0286 91.4851 41.5981 91.5027 41.2536 91.5027C40.1249 91.5027 39.6351 90.9166 39.6351 89.7259V85.2916H38.4073V84.2564Z" fill="#1B1B1B"/>
<path d="M44.5056 88.0657C44.5139 89.487 45.2297 90.511 46.4297 90.511C47.5426 90.511 47.901 89.9434 48.1269 89.4259H49.413C49.1334 90.3388 48.3658 91.5731 46.3908 91.5731C44.1371 91.5731 43.2148 89.7508 43.2148 87.9083C43.2148 85.7758 44.2898 84.0879 46.4704 84.0879C48.7843 84.0879 49.5445 85.9333 49.5445 87.4731C49.5445 87.6916 49.5445 87.8721 49.525 88.0666H44.5065L44.5056 88.0657ZM48.2491 87.1759C48.2352 86.0203 47.6584 85.0897 46.4519 85.0897C45.2454 85.0897 44.6704 85.9518 44.5482 87.1759H48.2491Z" fill="#1B1B1B"/>
<path d="M51.1231 86.1981C51.1231 85.2157 51.1148 84.649 51.1093 84.2564H52.362C52.3815 84.4546 52.4009 85.024 52.4009 85.7036C52.7713 84.7453 53.6185 84.1221 54.8018 84.0879V85.3564C53.338 85.3953 52.4009 86.1388 52.4009 87.9546V91.4036H51.1241V86.1981H51.1231Z" fill="#1B1B1B"/>
<path d="M55.9852 86.0573C55.9852 85.4379 55.9852 84.8083 55.9713 84.2564H57.213C57.2463 84.4657 57.2658 85.2018 57.263 85.4157C57.5454 84.811 58.1287 84.0879 59.5028 84.0879C60.8769 84.0879 61.8898 84.9166 61.8898 86.8101V91.4036H60.6121V86.9712C60.6121 85.9073 60.1991 85.1888 59.1204 85.1888C57.8019 85.1888 57.263 86.1823 57.263 87.6083V91.4036H55.9861V86.0573H55.9852Z" fill="#1B1B1B"/>
<path d="M67.7601 81.6139H71.4962C73.412 81.6139 74.7212 82.6833 74.7212 84.4732C74.7212 86.3935 73.3342 87.4028 71.4194 87.4028H69.1129V91.4046H67.7601V81.6148V81.6139ZM69.1129 86.2759H71.3435C72.6638 86.2759 73.3361 85.637 73.3361 84.5056C73.3361 83.3741 72.5277 82.7389 71.3944 82.7389H69.1129V86.2759Z" fill="#1B1B1B"/>
<path d="M76.224 91.4037V81.0713H77.5009V91.4037H76.224Z" fill="#1B1B1B"/>
<path d="M84.8638 89.8287C84.8638 90.4805 84.9203 91.2009 84.962 91.4036H83.7398C83.6833 91.2453 83.6416 90.9037 83.624 90.4824C83.374 90.9546 82.8083 91.5731 81.4286 91.5731C79.7416 91.5731 79.0212 90.474 79.0212 89.3851C79.0212 87.7879 80.2777 87.0574 82.3999 87.0574H83.6074V86.4583C83.6074 85.8351 83.4074 85.0814 82.0944 85.0814C80.9212 85.0814 80.7212 85.6601 80.5935 86.2157H79.3592C79.4546 85.2138 80.074 84.0824 82.1361 84.0879C83.8925 84.0935 84.8638 84.8074 84.8638 86.437V89.8296V89.8287ZM83.6166 87.9333H82.4805C81.0694 87.9333 80.3249 88.3259 80.3249 89.3148C80.3249 90.0444 80.8231 90.5796 81.6953 90.5796C83.3898 90.5796 83.6166 89.437 83.6166 88.1601V87.9333Z" fill="#1B1B1B"/>
<path d="M92.625 89.2093C92.325 90.437 91.4926 91.5722 89.6556 91.5722C87.6741 91.5722 86.4584 90.1491 86.4584 87.8685C86.4584 85.8426 87.6102 84.087 89.7454 84.087C91.8806 84.087 92.5361 85.5704 92.625 86.4852H91.3612C91.188 85.7657 90.7389 85.1481 89.7213 85.1481C88.4778 85.1481 87.7741 86.2148 87.7741 87.8231C87.7741 89.4315 88.4593 90.5148 89.6778 90.5148C90.5593 90.5148 91.0713 90.0426 91.3556 89.2083H92.625V89.2093Z" fill="#1B1B1B"/>
<path d="M94.962 88.0657C94.9703 89.487 95.6861 90.511 96.8861 90.511C97.999 90.511 98.3574 89.9434 98.5833 89.4259H99.8694C99.5898 90.3388 98.8222 91.5731 96.8472 91.5731C94.5935 91.5731 93.6713 89.7508 93.6713 87.9083C93.6713 85.7758 94.7463 84.0879 96.9268 84.0879C99.2407 84.0879 100.001 85.9333 100.001 87.4731C100.001 87.6916 100.001 87.8721 99.9815 88.0666H94.9629L94.962 88.0657ZM98.7055 87.1759C98.6916 86.0203 98.1148 85.0897 96.9083 85.0897C95.7018 85.0897 95.1268 85.9518 95.0046 87.1759H98.7055Z" fill="#1B1B1B"/>
<path d="M85.5176 39.7547C84.6028 37.7334 83.1926 36.1722 81.1676 35.2222C79.9528 34.6537 78.7139 34.1315 77.4833 33.5945C77.1639 33.4547 76.8407 33.3371 76.3815 33.1547C76.9148 36.4685 76.187 39.3695 74.0722 41.8111C71.962 44.2491 69.138 45.3232 65.9565 45.5926V46.1343C65.9565 48.0815 65.9722 50.0287 65.9528 51.975C65.9491 52.6565 65.9213 53.3417 65.8046 54.0074C65.287 56.9667 63.1917 58.7658 60.4 59.4667C59.9287 59.5834 59.4222 59.5676 58.9083 59.6148V56.7491C58.9083 50.8102 58.9083 44.8722 58.9009 38.9371C58.9009 38.6176 58.9241 38.4037 59.325 38.4074C61.3028 38.4148 63.2815 38.4037 65.2592 38.4074C66.0926 38.4074 66.9259 38.3759 67.65 37.913C68.8102 37.1658 69.4879 36.1797 69.4611 34.7C69.438 33.6093 68.9194 32.8778 68.2037 32.2C67.3241 31.3704 66.2055 31.4408 65.1231 31.4408C61.8481 31.4371 58.5731 31.4602 55.2981 31.4639C54.3518 31.4676 54.3481 31.3982 54.7491 30.5528C55.5667 28.8204 55.6176 27.0093 54.8389 25.2843C54.3324 24.1547 54.5231 24.1704 55.5472 24.1704C58.5963 24.1741 61.6454 24.1704 64.6944 24.1667H65.162C64.7259 23.4111 64.3055 22.675 63.912 21.9972C62.837 20.1435 62.2454 18.1028 61.6148 16.0824C61.0889 14.3806 60.6102 12.663 60.1935 10.9343C59.7185 8.97965 59.0722 7.09817 57.9704 5.42039C57.4139 4.57502 56.7787 3.73428 56.0194 3.08428C54.3528 1.66669 52.4092 0.833356 50.225 0.412986C48.3833 0.0583562 46.5528 -0.11294 44.7222 0.0824302C42.9426 0.269467 41.1787 0.674097 39.4305 1.08706C35.5287 2.01021 31.95 3.70373 28.6167 5.91947C27.5926 6.59724 26.5759 7.30558 25.638 8.09632C24.3139 9.21021 23.0055 10.3547 21.7981 11.5935C20.9139 12.5047 20.1778 13.5639 19.4148 14.588C18.8268 15.3787 18.2389 16.1806 17.7518 17.0371C16.1592 19.8445 15.0102 22.8278 14.3055 25.9861C13.7407 28.525 13.4055 31.0871 13.3981 33.6852C13.3861 36.4769 13.5305 39.2574 14.15 41.9917C14.5787 43.8685 14.9796 45.7574 15.5555 47.588C16.0537 49.1574 16.763 50.6565 17.4167 52.1713C18.7602 55.2871 20.5907 58.1139 22.6778 60.7732C23.4759 61.7898 24.3481 62.7593 25.2833 63.6546C26.4241 64.7491 27.6315 65.7843 28.8815 66.7584C29.9991 67.6269 31.187 68.4176 32.3935 69.1648C33.3555 69.7565 34.3602 70.3019 35.4037 70.738C37.1759 71.4741 38.9667 72.1787 40.7972 72.7667C42.0509 73.1676 43.3676 73.4324 44.6759 73.6121C46.5528 73.8648 48.4417 74.0945 50.3305 74.138C53.6917 74.2195 57.0167 73.9 60.3074 73.1259C62.8074 72.5417 65.237 71.7667 67.5935 70.7704C69.7278 69.863 71.7287 68.6945 73.6685 67.4176C75.7833 66.0232 77.613 64.3019 79.2991 62.4408C81.0204 60.5408 82.4185 58.3871 83.5787 56.0972C84.8639 53.5621 85.9037 50.9334 86.3472 48.0945C86.7917 45.2361 86.737 42.4398 85.5176 39.7574V39.7547ZM41.8259 30.4908C41.8842 30.6695 41.9898 30.8843 42.0592 31.063C42.1102 31.188 42.1954 31.3009 42.137 31.4019C42.0861 31.4834 41.8991 31.4482 41.7713 31.4482H38.1731C37.8852 31.4482 37.725 31.6158 37.725 32.0787C37.7407 34.4306 37.7444 36.4639 37.7444 38.8121C37.7481 44.9297 37.7444 51.0435 37.7444 57.1574V59.7121C36.9268 59.5445 36.0935 59.4547 35.3102 59.2019C34.1028 58.8121 33.013 58.1195 32.2454 57.1306C31.6648 56.3871 31.2917 55.4482 30.9639 54.5445C30.5046 53.2824 30.5046 51.9389 30.5157 50.6037C30.5509 46.7093 30.562 42.8195 30.5778 38.925C30.5852 36.6389 30.5704 34.3537 30.5898 32.0639C30.5935 31.5963 30.4889 31.4176 29.975 31.4491C28.7833 31.4491 27.6778 31.4454 26.525 31.4491C25.3102 31.4491 24.0954 31.4491 22.8805 31.4528C21.8213 31.4491 20.8361 31.4491 19.8157 31.4491C19.2157 31.4491 19.15 31.3435 19.1926 30.7445C19.3213 28.9917 19.9592 27.45 21.2528 26.2584C22.6861 24.9417 24.4222 24.2454 26.3815 24.2334C30.9842 24.2019 35.5907 24.2065 40.1981 24.1982H42.2389C42.1963 24.3343 42.1491 24.4241 42.087 24.5408C41.1018 26.4648 41.1833 28.4935 41.8259 30.4908ZM51.9389 38.9991V49.0185H51.9315C51.9315 52.313 51.9352 55.6037 51.9315 58.8945C51.9315 59.3698 51.6913 59.6074 51.2111 59.6074C49.2481 59.6074 47.2861 59.588 45.3231 59.6148C44.8481 59.6222 44.712 59.475 44.7194 59.0148C44.7509 56.8417 44.7704 54.6685 44.7741 52.4963C44.7778 47.9713 44.7778 43.4463 44.7667 38.9213C44.7667 38.5472 44.8954 38.4426 45.2417 38.4463C47.3324 38.4463 49.4241 38.4463 51.5185 38.4232C51.9898 38.4195 51.9389 38.7074 51.9389 38.9991ZM48.325 33.0843C44.7389 33.0611 43.025 30.7047 43.0213 27.8815C43.0213 24.8908 44.8907 22.6908 48.387 22.5584C50.9963 22.5463 53.7333 24.6963 53.5898 27.8C53.4417 30.9584 51.5379 33.1121 48.325 33.0843Z" fill="#0046BF"/>
<path d="M51.5186 38.4232C49.4232 38.4463 47.3325 38.4463 45.2417 38.4463C44.8954 38.4426 44.7667 38.5472 44.7667 38.9213C44.7788 43.4463 44.7788 47.9713 44.7742 52.4963C44.7704 54.6694 44.751 56.8417 44.7195 59.0148C44.7121 59.4741 44.8482 59.6222 45.3232 59.6148C47.2862 59.588 49.2482 59.6074 51.2112 59.6074C51.6914 59.6074 51.9316 59.3698 51.9316 58.8944C51.9353 55.6037 51.9316 52.313 51.9316 49.0185H51.939V38.9991C51.939 38.7074 51.9899 38.4185 51.5186 38.4232Z" fill="white"/>
<path d="M48.3871 22.5584C44.8899 22.6908 43.0214 24.8908 43.0214 27.8815C43.0251 30.7047 44.739 33.0602 48.3251 33.0843C51.538 33.1112 53.4417 30.9584 53.5899 27.8001C53.7343 24.6964 50.9964 22.5473 48.3871 22.5584Z" fill="white"/>
<path d="M42.2388 24.1981H40.1981C35.5916 24.2055 30.9842 24.2018 26.3814 24.2333C24.4231 24.2453 22.6861 24.9416 21.2527 26.2583C19.9601 27.45 19.3213 28.9916 19.1925 30.7444C19.15 31.3444 19.2157 31.449 19.8157 31.449C20.8361 31.449 21.8213 31.449 22.8805 31.4528C24.0953 31.449 25.3101 31.449 26.525 31.449C27.6777 31.4453 28.7833 31.449 29.975 31.449C30.4888 31.4176 30.5944 31.5972 30.5898 32.0639C30.5703 34.3537 30.5861 36.6398 30.5777 38.925C30.562 42.8194 30.5509 46.7092 30.5157 50.6037C30.5037 51.9398 30.5037 53.2824 30.9638 54.5444C31.2907 55.4481 31.6648 56.3861 32.2453 57.1305C33.0129 58.1194 34.1027 58.8129 35.3101 59.2018C36.0925 59.4546 36.9259 59.5444 37.7444 59.712V57.1574C37.7444 51.0435 37.7481 44.9296 37.7444 38.812C37.7444 36.4639 37.7407 34.4315 37.725 32.0787C37.725 31.6157 37.8842 31.4481 38.1731 31.4481H41.7713C41.9 31.4481 42.087 31.4833 42.137 31.4018C42.1953 31.3009 42.1101 31.1879 42.0592 31.0629C41.9888 30.8842 41.8842 30.6694 41.8259 30.4907C41.1833 28.4935 41.1018 26.4639 42.087 24.5407C42.149 24.424 42.1962 24.3342 42.2388 24.1981Z" fill="white"/>
<path d="M55.5491 24.1704C54.525 24.1704 54.3343 24.1547 54.8408 25.2843C55.6195 27.0093 55.5686 28.8204 54.751 30.5528C54.35 31.3982 54.3537 31.4676 55.3 31.4639C58.575 31.4602 61.85 31.4371 65.125 31.4408C66.2074 31.4408 67.325 31.3704 68.2056 32.2001C68.9223 32.8778 69.4399 33.6093 69.463 34.7001C69.4899 36.1797 68.813 37.1649 67.6519 37.913C66.9278 38.376 66.0945 38.4075 65.2612 38.4075C63.2834 38.4038 61.3047 38.4149 59.3269 38.4075C58.926 38.4038 58.9028 38.6176 58.9028 38.9371C58.9102 44.8714 58.9102 50.8102 58.9102 56.7491V59.6149C59.4241 59.5686 59.9306 59.5834 60.4019 59.4667C63.1936 58.7658 65.2889 56.9667 65.8065 54.0075C65.9232 53.3417 65.951 52.6565 65.9547 51.9751C65.9741 50.0278 65.9584 48.0806 65.9584 46.1343V45.5926C69.1399 45.3241 71.963 44.2491 74.0741 41.8112C76.1889 39.3695 76.9167 36.4686 76.3834 33.1547C74.5491 23.6843 65.1649 24.1667 65.1649 24.1667H64.6973C61.6482 24.1704 58.5991 24.1741 55.55 24.1704H55.5491Z" fill="white"/>
</g>
<defs>
<clipPath id="clip0_240_16">
<rect width="100" height="91.5722" fill="white"/>
</clipPath>
</defs>
</svg>
