<svg width="64" height="64" viewBox="0 0 64 64" fill="none" xmlns="http://www.w3.org/2000/svg">
<g clip-path="url(#clip0_871_492)">
<rect width="64" height="64" rx="32" fill="url(#paint0_linear_871_492)"/>
<path d="M45.5952 27.0995C43.1413 24.6456 31.4179 19.322 27.9643 18.9818C24.5107 18.6417 30.3705 16.9538 25.6664 18.9818C22.781 20.9098 20.6533 23.7786 19.6459 27.0995C18.6385 30.4204 18.8138 33.9879 20.1418 37.194C21.4698 40.4002 23.8685 43.0467 26.9291 44.6826C29.9896 46.3185 33.5227 46.8426 36.9264 46.1656C40.33 45.4885 43.3936 29.7821 45.5952 27.0995C47.7967 24.4169 39.0501 30.5698 39.0501 27.0995L40.533 31.4538C40.533 32.9652 40.0089 34.4299 39.0501 35.5983C38.0912 36.7667 36.7569 37.5664 35.2745 37.8613C33.7921 38.1561 32.2533 37.9279 30.9204 37.2154C29.5874 36.5029 28.5427 35.3503 27.9643 33.9539C27.3859 32.5575 27.3096 31.0037 27.7483 29.5574C28.1871 28.111 29.1137 26.8615 30.3705 26.0218C31.6272 25.1821 33.1362 24.8041 34.6403 24.9523C36.1445 25.1004 37.5508 25.7655 38.6195 26.8343L45.5952 27.0995Z" fill="#25FCEF"/>
<rect width="64" height="64" rx="32" fill="#ED49C9"/>
<path d="M14.0405 18.7148H24.9976L43.9624 38.3633V26.6055C43.9624 25.1732 43.715 23.9232 43.2202 22.8555C42.7384 21.7747 42.0353 20.9544 41.1108 20.3945C40.616 20.082 40.1147 19.8607 39.6069 19.7305C39.1121 19.6003 38.4155 19.5026 37.5171 19.4375V18.7148H51.0327V19.4375H50.7593C48.7931 19.4375 47.2957 20.0625 46.2671 21.3125C45.2384 22.5625 44.7241 24.3789 44.7241 26.7617V46.2734H44.0796L20.5249 22.0742V38.2852C20.5249 39.8607 20.7137 41.1237 21.0913 42.0742C21.4689 43.0117 22.0809 43.7474 22.9272 44.2812C23.6174 44.6979 24.4572 44.9648 25.4468 45.082C25.9937 45.1732 26.7749 45.2383 27.7905 45.2773V46H13.5522V45.2773C15.0106 45.1992 16.1955 44.9453 17.1069 44.5156C18.0314 44.0729 18.7085 43.4219 19.1382 42.5625C19.5809 41.7031 19.8022 40.6354 19.8022 39.3594V23.9297C19.8022 22.9792 19.5874 22.1719 19.1577 21.5078C18.741 20.8438 18.1291 20.3359 17.3218 19.9844C16.5145 19.6198 15.5379 19.4375 14.3921 19.4375H14.0405V18.7148Z" fill="white"/>
</g>
<defs>
<linearGradient id="paint0_linear_871_492" x1="7.31429" y1="5.48571" x2="57.6" y2="60.3429" gradientUnits="userSpaceOnUse">
<stop stop-color="#002360"/>
<stop offset="1" stop-color="#0048C6"/>
</linearGradient>
<clipPath id="clip0_871_492">
<rect width="64" height="64" rx="32" fill="white"/>
</clipPath>
</defs>
</svg>
